<svg width="36.689697" height="36.689636" viewBox="0 0 36.6897 36.6896" fill="none" xmlns="http://www.w3.org/2000/svg" xmlns:xlink="http://www.w3.org/1999/xlink">
	<desc>
			Created with Pixso.
	</desc>
	<defs/>
	<mask id="mask9_1099" mask-type="alpha" maskUnits="userSpaceOnUse" x="0.000000" y="0.000000" width="36.689697" height="36.689636">
		<circle id="mask" cx="18.344849" cy="18.344849" r="18.344824" fill="#C4C4C4" fill-opacity="1.000000"/>
	</mask>
	<g mask="url(#mask9_1099)">
		<circle id="Ellipse 32" cx="18.344849" cy="18.344849" r="18.344824" fill="#E4E4E4" fill-opacity="1.000000"/>
	</g>
	<g mask="url(#mask9_1099)">
		<circle id="Ellipse 31" cx="18.344849" cy="18.344849" r="17.034479" stroke="#FFFFFF" stroke-opacity="1.000000" stroke-width="2.620689"/>
	</g>
	<g mask="url(#mask9_1099)">
		<path id="Vector" d="M28.95 12.98C28.67 12.49 28.16 12.21 27.59 12.21L27.01 12.21L26.28 13.45L27.59 13.45C27.75 13.45 27.83 13.56 27.86 13.6C27.89 13.65 27.94 13.77 27.86 13.91L20.45 26.57L19.23 24.63C18.85 24.03 18.83 23.28 19.19 22.66L26.4 10.34L26.41 10.35C26.64 9.89 26.62 9.36 26.37 8.91C26.09 8.43 25.59 8.14 25.03 8.12L19.15 8C18.32 7.98 17.55 8.38 17.09 9.06L16.08 10.58L15.06 9.06C14.68 8.49 14.05 8.16 13.36 8.16L8.17 8.16L16.02 21.19L20.26 14.18C20.53 13.73 21.03 13.45 21.56 13.45L23.14 13.45L18.1 22.04C17.51 23.05 17.53 24.3 18.16 25.29L20.49 29L28.95 14.53C29.24 14.04 29.24 13.46 28.95 12.98ZM21.56 12.2C20.58 12.2 19.67 12.72 19.17 13.54L16.02 18.75L10.39 9.4L13.36 9.4C13.62 9.4 13.86 9.53 14 9.75L16.07 12.85L18.15 9.75C18.37 9.42 18.73 9.23 19.13 9.24L25 9.37C25.16 9.37 25.24 9.48 25.27 9.52C25.29 9.57 25.34 9.69 25.26 9.82L23.87 12.2L21.56 12.2Z" fill="#151515" fill-opacity="1.000000" fill-rule="nonzero"/>
	</g>
</svg>
