<svg width="36.689697" height="36.689636" viewBox="0 0 36.6897 36.6896" fill="none" xmlns="http://www.w3.org/2000/svg" xmlns:xlink="http://www.w3.org/1999/xlink">
	<desc>
			Created with Pixso.
	</desc>
	<defs>
		<linearGradient x1="20.519594" y1="22.084223" x2="21.339071" y2="25.834396" id="paint_linear_9_1117_0" gradientUnits="userSpaceOnUse">
			<stop offset="0.080000" stop-color="#B0E355"/>
			<stop offset="0.210000" stop-color="#ADE152"/>
			<stop offset="0.320000" stop-color="#A2DA4A"/>
			<stop offset="0.420000" stop-color="#91CE3B"/>
			<stop offset="0.520000" stop-color="#79BE27"/>
			<stop offset="0.610000" stop-color="#5AA90D"/>
			<stop offset="0.650000" stop-color="#4A9F00"/>
			<stop offset="1.000000" stop-color="#346D0A"/>
		</linearGradient>
		<linearGradient x1="23.743250" y1="23.906538" x2="16.440315" y2="27.876095" id="paint_linear_9_1118_0" gradientUnits="userSpaceOnUse">
			<stop offset="0.080000" stop-color="#B0E355"/>
			<stop offset="0.210000" stop-color="#ADE152"/>
			<stop offset="0.320000" stop-color="#A2DA4A"/>
			<stop offset="0.420000" stop-color="#91CE3B"/>
			<stop offset="0.520000" stop-color="#79BE27"/>
			<stop offset="0.610000" stop-color="#5AA90D"/>
			<stop offset="0.650000" stop-color="#4A9F00"/>
			<stop offset="1.000000" stop-color="#346D0A"/>
		</linearGradient>
		<linearGradient x1="23.176561" y1="21.672848" x2="19.676889" y2="25.774033" id="paint_linear_9_1119_0" gradientUnits="userSpaceOnUse">
			<stop offset="0.080000" stop-color="#B0E355"/>
			<stop offset="0.210000" stop-color="#ADE152"/>
			<stop offset="0.320000" stop-color="#A2DA4A"/>
			<stop offset="0.420000" stop-color="#91CE3B"/>
			<stop offset="0.520000" stop-color="#79BE27"/>
			<stop offset="0.610000" stop-color="#5AA90D"/>
			<stop offset="0.650000" stop-color="#4A9F00"/>
			<stop offset="1.000000" stop-color="#346D0A"/>
		</linearGradient>
		<linearGradient x1="23.113625" y1="21.619606" x2="19.614126" y2="25.720520" id="paint_linear_9_1120_0" gradientUnits="userSpaceOnUse">
			<stop offset="0.080000" stop-color="#B0E355"/>
			<stop offset="0.210000" stop-color="#ADE152"/>
			<stop offset="0.320000" stop-color="#A2DA4A"/>
			<stop offset="0.420000" stop-color="#91CE3B"/>
			<stop offset="0.520000" stop-color="#79BE27"/>
			<stop offset="0.610000" stop-color="#5AA90D"/>
			<stop offset="0.650000" stop-color="#4A9F00"/>
			<stop offset="1.000000" stop-color="#346D0A"/>
		</linearGradient>
		<linearGradient x1="23.074602" y1="21.586266" x2="19.574932" y2="25.687458" id="paint_linear_9_1121_0" gradientUnits="userSpaceOnUse">
			<stop offset="0.080000" stop-color="#B0E355"/>
			<stop offset="0.210000" stop-color="#ADE152"/>
			<stop offset="0.320000" stop-color="#A2DA4A"/>
			<stop offset="0.420000" stop-color="#91CE3B"/>
			<stop offset="0.520000" stop-color="#79BE27"/>
			<stop offset="0.610000" stop-color="#5AA90D"/>
			<stop offset="0.650000" stop-color="#4A9F00"/>
			<stop offset="1.000000" stop-color="#346D0A"/>
		</linearGradient>
		<linearGradient x1="23.075073" y1="21.586931" x2="19.575579" y2="25.687847" id="paint_linear_9_1122_0" gradientUnits="userSpaceOnUse">
			<stop offset="0.080000" stop-color="#B0E355"/>
			<stop offset="0.210000" stop-color="#ADE152"/>
			<stop offset="0.320000" stop-color="#A2DA4A"/>
			<stop offset="0.420000" stop-color="#91CE3B"/>
			<stop offset="0.520000" stop-color="#79BE27"/>
			<stop offset="0.610000" stop-color="#5AA90D"/>
			<stop offset="0.650000" stop-color="#4A9F00"/>
			<stop offset="1.000000" stop-color="#346D0A"/>
		</linearGradient>
		<linearGradient x1="23.114172" y1="21.619850" x2="19.614227" y2="25.720863" id="paint_linear_9_1123_0" gradientUnits="userSpaceOnUse">
			<stop offset="0.080000" stop-color="#B0E355"/>
			<stop offset="0.210000" stop-color="#ADE152"/>
			<stop offset="0.320000" stop-color="#A2DA4A"/>
			<stop offset="0.420000" stop-color="#91CE3B"/>
			<stop offset="0.520000" stop-color="#79BE27"/>
			<stop offset="0.610000" stop-color="#5AA90D"/>
			<stop offset="0.650000" stop-color="#4A9F00"/>
			<stop offset="1.000000" stop-color="#346D0A"/>
		</linearGradient>
		<linearGradient x1="24.081732" y1="22.440681" x2="20.582060" y2="26.541862" id="paint_linear_9_1124_0" gradientUnits="userSpaceOnUse">
			<stop offset="0.080000" stop-color="#B0E355"/>
			<stop offset="0.210000" stop-color="#ADE152"/>
			<stop offset="0.320000" stop-color="#A2DA4A"/>
			<stop offset="0.420000" stop-color="#91CE3B"/>
			<stop offset="0.520000" stop-color="#79BE27"/>
			<stop offset="0.610000" stop-color="#5AA90D"/>
			<stop offset="0.650000" stop-color="#4A9F00"/>
			<stop offset="1.000000" stop-color="#346D0A"/>
		</linearGradient>
		<linearGradient x1="23.909359" y1="22.294651" x2="20.409594" y2="26.395393" id="paint_linear_9_1125_0" gradientUnits="userSpaceOnUse">
			<stop offset="0.080000" stop-color="#B0E355"/>
			<stop offset="0.210000" stop-color="#ADE152"/>
			<stop offset="0.320000" stop-color="#A2DA4A"/>
			<stop offset="0.420000" stop-color="#91CE3B"/>
			<stop offset="0.520000" stop-color="#79BE27"/>
			<stop offset="0.610000" stop-color="#5AA90D"/>
			<stop offset="0.650000" stop-color="#4A9F00"/>
			<stop offset="1.000000" stop-color="#346D0A"/>
		</linearGradient>
		<linearGradient x1="23.748468" y1="22.158096" x2="20.248968" y2="26.259003" id="paint_linear_9_1126_0" gradientUnits="userSpaceOnUse">
			<stop offset="0.080000" stop-color="#B0E355"/>
			<stop offset="0.210000" stop-color="#ADE152"/>
			<stop offset="0.320000" stop-color="#A2DA4A"/>
			<stop offset="0.420000" stop-color="#91CE3B"/>
			<stop offset="0.520000" stop-color="#79BE27"/>
			<stop offset="0.610000" stop-color="#5AA90D"/>
			<stop offset="0.650000" stop-color="#4A9F00"/>
			<stop offset="1.000000" stop-color="#346D0A"/>
		</linearGradient>
		<linearGradient x1="23.523867" y1="21.967287" x2="20.023926" y2="26.068304" id="paint_linear_9_1127_0" gradientUnits="userSpaceOnUse">
			<stop offset="0.080000" stop-color="#B0E355"/>
			<stop offset="0.210000" stop-color="#ADE152"/>
			<stop offset="0.320000" stop-color="#A2DA4A"/>
			<stop offset="0.420000" stop-color="#91CE3B"/>
			<stop offset="0.520000" stop-color="#79BE27"/>
			<stop offset="0.610000" stop-color="#5AA90D"/>
			<stop offset="0.650000" stop-color="#4A9F00"/>
			<stop offset="1.000000" stop-color="#346D0A"/>
		</linearGradient>
		<linearGradient x1="23.370346" y1="21.837456" x2="19.870846" y2="25.938370" id="paint_linear_9_1128_0" gradientUnits="userSpaceOnUse">
			<stop offset="0.080000" stop-color="#B0E355"/>
			<stop offset="0.210000" stop-color="#ADE152"/>
			<stop offset="0.320000" stop-color="#A2DA4A"/>
			<stop offset="0.420000" stop-color="#91CE3B"/>
			<stop offset="0.520000" stop-color="#79BE27"/>
			<stop offset="0.610000" stop-color="#5AA90D"/>
			<stop offset="0.650000" stop-color="#4A9F00"/>
			<stop offset="1.000000" stop-color="#346D0A"/>
		</linearGradient>
		<linearGradient x1="23.612757" y1="22.043127" x2="20.113258" y2="26.144039" id="paint_linear_9_1129_0" gradientUnits="userSpaceOnUse">
			<stop offset="0.080000" stop-color="#B0E355"/>
			<stop offset="0.210000" stop-color="#ADE152"/>
			<stop offset="0.320000" stop-color="#A2DA4A"/>
			<stop offset="0.420000" stop-color="#91CE3B"/>
			<stop offset="0.520000" stop-color="#79BE27"/>
			<stop offset="0.610000" stop-color="#5AA90D"/>
			<stop offset="0.650000" stop-color="#4A9F00"/>
			<stop offset="1.000000" stop-color="#346D0A"/>
		</linearGradient>
		<linearGradient x1="16.761345" y1="25.466160" x2="18.829933" y2="26.330439" id="paint_linear_9_1130_0" gradientUnits="userSpaceOnUse">
			<stop offset="0.080000" stop-color="#B0E355"/>
			<stop offset="0.210000" stop-color="#ADE152"/>
			<stop offset="0.320000" stop-color="#A2DA4A"/>
			<stop offset="0.420000" stop-color="#91CE3B"/>
			<stop offset="0.520000" stop-color="#79BE27"/>
			<stop offset="0.610000" stop-color="#5AA90D"/>
			<stop offset="0.650000" stop-color="#4A9F00"/>
			<stop offset="1.000000" stop-color="#346D0A"/>
		</linearGradient>
		<linearGradient x1="18.711287" y1="24.541956" x2="18.168550" y2="29.343533" id="paint_linear_9_1131_0" gradientUnits="userSpaceOnUse">
			<stop offset="0.080000" stop-color="#B0E355"/>
			<stop offset="0.210000" stop-color="#ADE152"/>
			<stop offset="0.320000" stop-color="#A2DA4A"/>
			<stop offset="0.420000" stop-color="#91CE3B"/>
			<stop offset="0.520000" stop-color="#79BE27"/>
			<stop offset="0.610000" stop-color="#5AA90D"/>
			<stop offset="0.650000" stop-color="#4A9F00"/>
			<stop offset="1.000000" stop-color="#346D0A"/>
		</linearGradient>
		<linearGradient x1="17.452919" y1="24.064814" x2="18.244692" y2="27.100780" id="paint_linear_9_1132_0" gradientUnits="userSpaceOnUse">
			<stop offset="0.080000" stop-color="#B0E355"/>
			<stop offset="0.210000" stop-color="#ADE152"/>
			<stop offset="0.320000" stop-color="#A2DA4A"/>
			<stop offset="0.420000" stop-color="#91CE3B"/>
			<stop offset="0.520000" stop-color="#79BE27"/>
			<stop offset="0.610000" stop-color="#5AA90D"/>
			<stop offset="0.650000" stop-color="#4A9F00"/>
			<stop offset="1.000000" stop-color="#346D0A"/>
		</linearGradient>
		<linearGradient x1="17.406231" y1="24.076817" x2="18.198425" y2="27.112968" id="paint_linear_9_1133_0" gradientUnits="userSpaceOnUse">
			<stop offset="0.080000" stop-color="#B0E355"/>
			<stop offset="0.210000" stop-color="#ADE152"/>
			<stop offset="0.320000" stop-color="#A2DA4A"/>
			<stop offset="0.420000" stop-color="#91CE3B"/>
			<stop offset="0.520000" stop-color="#79BE27"/>
			<stop offset="0.610000" stop-color="#5AA90D"/>
			<stop offset="0.650000" stop-color="#4A9F00"/>
			<stop offset="1.000000" stop-color="#346D0A"/>
		</linearGradient>
		<linearGradient x1="17.377420" y1="24.084564" x2="18.169495" y2="27.120415" id="paint_linear_9_1134_0" gradientUnits="userSpaceOnUse">
			<stop offset="0.080000" stop-color="#B0E355"/>
			<stop offset="0.210000" stop-color="#ADE152"/>
			<stop offset="0.320000" stop-color="#A2DA4A"/>
			<stop offset="0.420000" stop-color="#91CE3B"/>
			<stop offset="0.520000" stop-color="#79BE27"/>
			<stop offset="0.610000" stop-color="#5AA90D"/>
			<stop offset="0.650000" stop-color="#4A9F00"/>
			<stop offset="1.000000" stop-color="#346D0A"/>
		</linearGradient>
		<linearGradient x1="17.377748" y1="24.084347" x2="18.169823" y2="27.120197" id="paint_linear_9_1135_0" gradientUnits="userSpaceOnUse">
			<stop offset="0.080000" stop-color="#B0E355"/>
			<stop offset="0.210000" stop-color="#ADE152"/>
			<stop offset="0.320000" stop-color="#A2DA4A"/>
			<stop offset="0.420000" stop-color="#91CE3B"/>
			<stop offset="0.520000" stop-color="#79BE27"/>
			<stop offset="0.610000" stop-color="#5AA90D"/>
			<stop offset="0.650000" stop-color="#4A9F00"/>
			<stop offset="1.000000" stop-color="#346D0A"/>
		</linearGradient>
		<linearGradient x1="17.406433" y1="24.076651" x2="18.198629" y2="27.112799" id="paint_linear_9_1136_0" gradientUnits="userSpaceOnUse">
			<stop offset="0.080000" stop-color="#B0E355"/>
			<stop offset="0.210000" stop-color="#ADE152"/>
			<stop offset="0.320000" stop-color="#A2DA4A"/>
			<stop offset="0.420000" stop-color="#91CE3B"/>
			<stop offset="0.520000" stop-color="#79BE27"/>
			<stop offset="0.610000" stop-color="#5AA90D"/>
			<stop offset="0.650000" stop-color="#4A9F00"/>
			<stop offset="1.000000" stop-color="#346D0A"/>
		</linearGradient>
		<linearGradient x1="18.123018" y1="23.890825" x2="18.914915" y2="26.927099" id="paint_linear_9_1137_0" gradientUnits="userSpaceOnUse">
			<stop offset="0.080000" stop-color="#B0E355"/>
			<stop offset="0.210000" stop-color="#ADE152"/>
			<stop offset="0.320000" stop-color="#A2DA4A"/>
			<stop offset="0.420000" stop-color="#91CE3B"/>
			<stop offset="0.520000" stop-color="#79BE27"/>
			<stop offset="0.610000" stop-color="#5AA90D"/>
			<stop offset="0.650000" stop-color="#4A9F00"/>
			<stop offset="1.000000" stop-color="#346D0A"/>
		</linearGradient>
		<linearGradient x1="17.995337" y1="23.923998" x2="18.787533" y2="26.960148" id="paint_linear_9_1138_0" gradientUnits="userSpaceOnUse">
			<stop offset="0.080000" stop-color="#B0E355"/>
			<stop offset="0.210000" stop-color="#ADE152"/>
			<stop offset="0.320000" stop-color="#A2DA4A"/>
			<stop offset="0.420000" stop-color="#91CE3B"/>
			<stop offset="0.520000" stop-color="#79BE27"/>
			<stop offset="0.610000" stop-color="#5AA90D"/>
			<stop offset="0.650000" stop-color="#4A9F00"/>
			<stop offset="1.000000" stop-color="#346D0A"/>
		</linearGradient>
		<linearGradient x1="17.876329" y1="23.954927" x2="18.668526" y2="26.991079" id="paint_linear_9_1139_0" gradientUnits="userSpaceOnUse">
			<stop offset="0.080000" stop-color="#B0E355"/>
			<stop offset="0.210000" stop-color="#ADE152"/>
			<stop offset="0.320000" stop-color="#A2DA4A"/>
			<stop offset="0.420000" stop-color="#91CE3B"/>
			<stop offset="0.520000" stop-color="#79BE27"/>
			<stop offset="0.610000" stop-color="#5AA90D"/>
			<stop offset="0.650000" stop-color="#4A9F00"/>
			<stop offset="1.000000" stop-color="#346D0A"/>
		</linearGradient>
		<linearGradient x1="17.709829" y1="23.998238" x2="18.502026" y2="27.034388" id="paint_linear_9_1140_0" gradientUnits="userSpaceOnUse">
			<stop offset="0.080000" stop-color="#B0E355"/>
			<stop offset="0.210000" stop-color="#ADE152"/>
			<stop offset="0.320000" stop-color="#A2DA4A"/>
			<stop offset="0.420000" stop-color="#91CE3B"/>
			<stop offset="0.520000" stop-color="#79BE27"/>
			<stop offset="0.610000" stop-color="#5AA90D"/>
			<stop offset="0.650000" stop-color="#4A9F00"/>
			<stop offset="1.000000" stop-color="#346D0A"/>
		</linearGradient>
		<linearGradient x1="17.596355" y1="24.027561" x2="18.388554" y2="27.063709" id="paint_linear_9_1141_0" gradientUnits="userSpaceOnUse">
			<stop offset="0.080000" stop-color="#B0E355"/>
			<stop offset="0.210000" stop-color="#ADE152"/>
			<stop offset="0.320000" stop-color="#A2DA4A"/>
			<stop offset="0.420000" stop-color="#91CE3B"/>
			<stop offset="0.520000" stop-color="#79BE27"/>
			<stop offset="0.610000" stop-color="#5AA90D"/>
			<stop offset="0.650000" stop-color="#4A9F00"/>
			<stop offset="1.000000" stop-color="#346D0A"/>
		</linearGradient>
		<linearGradient x1="17.775837" y1="23.981079" x2="18.568033" y2="27.017227" id="paint_linear_9_1142_0" gradientUnits="userSpaceOnUse">
			<stop offset="0.080000" stop-color="#B0E355"/>
			<stop offset="0.210000" stop-color="#ADE152"/>
			<stop offset="0.320000" stop-color="#A2DA4A"/>
			<stop offset="0.420000" stop-color="#91CE3B"/>
			<stop offset="0.520000" stop-color="#79BE27"/>
			<stop offset="0.610000" stop-color="#5AA90D"/>
			<stop offset="0.650000" stop-color="#4A9F00"/>
			<stop offset="1.000000" stop-color="#346D0A"/>
		</linearGradient>
	</defs>
	<mask id="mask9_1104" mask-type="alpha" maskUnits="userSpaceOnUse" x="0.000000" y="0.000000" width="36.689697" height="36.689636">
		<circle id="mask" cx="18.344849" cy="18.344849" r="18.344824" fill="#C4C4C4" fill-opacity="1.000000"/>
	</mask>
	<g mask="url(#mask9_1104)">
		<circle id="Ellipse 32" cx="18.344849" cy="18.344849" r="18.344824" fill="#FFBB42" fill-opacity="1.000000"/>
	</g>
	<g mask="url(#mask9_1104)">
		<path id="Vector" d="M17.25 26.06C15.78 25.6 14.71 24.22 14.71 22.61L14.71 13.14C14.71 11.52 15.78 10.15 17.25 9.69L17.25 8C16.26 8.21 15.35 8.7 14.62 9.43C13.62 10.42 13.07 11.74 13.07 13.14L13.07 22.61C13.07 24 13.62 25.32 14.62 26.32C15.35 27.05 16.26 27.54 17.25 27.74L17.25 26.06Z" fill="#151515" fill-opacity="1.000000" fill-rule="nonzero"/>
		<path id="Vector" d="M22.06 9.43C21.32 8.69 20.4 8.2 19.4 8L19.4 9.68C20.89 10.13 21.97 11.51 21.97 13.14L21.97 22.61C21.97 24.23 20.89 25.61 19.4 26.07L19.4 27.75C20.4 27.55 21.32 27.05 22.06 26.32C23.06 25.32 23.61 24 23.61 22.61L23.61 13.14C23.61 11.74 23.06 10.42 22.06 9.43Z" fill="#151515" fill-opacity="1.000000" fill-rule="nonzero"/>
		<path id="Vector" d="M17.99 22.07L18.98 22.07L18.98 22.26L17.61 22.26L17.61 21.99L18.43 21.77L17.61 21.77L17.61 21.58L18.98 21.58L18.98 21.8L17.99 22.07Z" fill="#2E6C19" fill-opacity="1.000000" fill-rule="nonzero"/>
		<path id="Vector" d="M18.19 20.63L18.19 20.33L18.39 20.33L18.39 20.63L18.79 20.63L18.79 20.26L18.98 20.26L18.98 20.84L17.61 20.84L17.61 20.26L17.81 20.26L17.81 20.63L18.19 20.63Z" fill="#2E6C19" fill-opacity="1.000000" fill-rule="nonzero"/>
		<path id="Vector" d="M17.61 19.6L17.61 18.94L17.81 18.94L17.81 19.16L18.98 19.16L18.98 19.38L17.81 19.38L17.81 19.6L17.61 19.6Z" fill="#2E6C19" fill-opacity="1.000000" fill-rule="nonzero"/>
		<path id="Vector" d="M17.61 16.77L17.81 16.77L18.79 17.18L18.79 16.77L18.98 16.77L18.98 17.4L18.79 17.4L17.81 17L17.81 17.38L17.61 17.38L17.61 16.77Z" fill="#2E6C19" fill-opacity="1.000000" fill-rule="nonzero"/>
		<path id="Vector" d="M18.19 15.85L18.19 15.55L18.39 15.55L18.39 15.85L18.79 15.85L18.79 15.48L18.98 15.48L18.98 16.06L17.61 16.06L17.61 15.48L17.81 15.48L17.81 15.85L18.19 15.85Z" fill="#2E6C19" fill-opacity="1.000000" fill-rule="nonzero"/>
		<path id="Vector" d="M18.98 14.31C18.97 14.31 18.97 14.32 18.96 14.32C18.95 14.32 18.94 14.32 18.93 14.33C18.91 14.33 18.9 14.33 18.88 14.33C18.87 14.33 18.84 14.33 18.82 14.33L18.6 14.33C18.54 14.33 18.49 14.34 18.46 14.36C18.44 14.39 18.43 14.42 18.43 14.47L18.43 14.55L18.98 14.55L18.98 14.76L17.61 14.76L17.61 14.44C17.61 14.32 17.64 14.24 17.69 14.19C17.74 14.14 17.82 14.12 17.93 14.12L18.04 14.12C18.18 14.12 18.27 14.16 18.31 14.26C18.34 14.2 18.37 14.17 18.42 14.15C18.47 14.13 18.53 14.12 18.61 14.12L18.82 14.12C18.85 14.12 18.88 14.11 18.91 14.11C18.93 14.11 18.96 14.1 18.98 14.09L18.98 14.31ZM17.81 14.54L18.23 14.54L18.23 14.46C18.23 14.42 18.22 14.39 18.2 14.37C18.18 14.34 18.14 14.33 18.09 14.33L17.95 14.33C17.9 14.33 17.86 14.34 17.84 14.36C17.82 14.38 17.81 14.4 17.81 14.44L17.81 14.54Z" fill="#2E6C19" fill-opacity="1.000000" fill-rule="nonzero"/>
		<path id="Vector" d="M17.94 13.41C17.83 13.41 17.75 13.38 17.69 13.32C17.63 13.27 17.6 13.19 17.6 13.08C17.6 12.98 17.63 12.89 17.69 12.84C17.75 12.78 17.83 12.76 17.94 12.76L18.65 12.76C18.77 12.76 18.85 12.78 18.91 12.84C18.97 12.9 19 12.98 19 13.08C19 13.19 18.97 13.27 18.91 13.32C18.85 13.38 18.77 13.41 18.65 13.41L17.94 13.41ZM18.67 13.19C18.72 13.19 18.75 13.18 18.77 13.16C18.79 13.14 18.8 13.11 18.8 13.08C18.8 13.05 18.79 13.02 18.77 13C18.75 12.98 18.72 12.97 18.67 12.97L17.93 12.97C17.88 12.97 17.84 12.98 17.82 13C17.8 13.02 17.79 13.05 17.79 13.08C17.79 13.11 17.8 13.14 17.82 13.16C17.84 13.18 17.88 13.19 17.93 13.19L18.67 13.19Z" fill="#2E6C19" fill-opacity="1.000000" fill-rule="nonzero"/>
		<path id="Vector" d="M22.99 22.5C23.05 22.48 23.11 22.46 23.17 22.45L23.17 22.45C22.76 22.35 21.39 22.48 20.05 23.69C18.5 25.09 18.73 26.62 19.55 27.14C19.57 27.15 19.59 27.16 19.61 27.17C21.24 22.98 22.99 22.5 22.99 22.5Z" fill="url(#paint_linear_9_1117_0)" fill-opacity="1.000000" fill-rule="nonzero"/>
		<path id="Vector" d="M22.08 25.04C22.37 22.98 23.12 22.48 23.17 22.45C23.11 22.46 23.05 22.48 22.99 22.5C22.99 22.5 21.24 22.98 19.61 27.17C20.51 27.69 21.76 27.38 22.08 25.04Z" fill="url(#paint_linear_9_1118_0)" fill-opacity="1.000000" fill-rule="nonzero"/>
		<path id="Vector" d="M19.43 24.97L19.41 25.05C19.41 25.07 19.41 25.1 19.4 25.14C19.4 25.16 19.4 25.18 19.4 25.2C19.4 25.22 19.39 25.24 19.39 25.26C19.39 25.28 19.39 25.3 19.39 25.33C19.39 25.35 19.39 25.38 19.39 25.4C19.39 25.45 19.39 25.5 19.4 25.56C19.4 25.61 19.41 25.67 19.42 25.73C19.42 25.76 19.42 25.79 19.43 25.81C19.43 25.84 19.44 25.87 19.45 25.9C19.46 25.96 19.47 26.01 19.49 26.07C19.5 26.13 19.52 26.18 19.54 26.23C19.56 26.28 19.58 26.33 19.6 26.38C19.61 26.43 19.63 26.47 19.65 26.51C19.69 26.59 19.72 26.65 19.75 26.7C19.76 26.72 19.77 26.74 19.78 26.75L19.79 26.77L19.79 26.77C19.79 26.77 19.79 26.78 19.8 26.79C19.8 26.79 19.8 26.8 19.79 26.81C19.79 26.81 19.79 26.82 19.79 26.82C19.78 26.83 19.78 26.83 19.77 26.84C19.77 26.84 19.76 26.84 19.75 26.84C19.75 26.84 19.74 26.84 19.73 26.84C19.73 26.84 19.72 26.84 19.72 26.84C19.71 26.83 19.71 26.83 19.7 26.82L19.7 26.82L19.69 26.8C19.68 26.79 19.67 26.77 19.66 26.74C19.64 26.7 19.6 26.63 19.57 26.55C19.55 26.5 19.54 26.46 19.52 26.41C19.5 26.36 19.48 26.31 19.47 26.25C19.45 26.2 19.44 26.14 19.42 26.09C19.41 26.03 19.4 25.97 19.39 25.91C19.38 25.88 19.38 25.85 19.37 25.82C19.37 25.79 19.37 25.76 19.36 25.73C19.36 25.68 19.35 25.62 19.35 25.56C19.35 25.5 19.35 25.45 19.35 25.4C19.35 25.37 19.35 25.35 19.35 25.32L19.36 25.26C19.36 25.23 19.36 25.21 19.37 25.19C19.37 25.17 19.37 25.15 19.37 25.13C19.38 25.1 19.39 25.07 19.39 25.04C19.4 24.99 19.41 24.96 19.41 24.96C19.41 24.96 19.41 24.96 19.41 24.95C19.41 24.95 19.42 24.95 19.42 24.95C19.42 24.95 19.43 24.96 19.43 24.96C19.43 24.96 19.43 24.96 19.43 24.97L19.43 24.97Z" fill="url(#paint_linear_9_1119_0)" fill-opacity="1.000000" fill-rule="nonzero"/>
		<path id="Vector" d="M19.94 26.21C19.94 26.21 19.94 26.18 19.93 26.14C19.92 26.09 19.9 26.02 19.89 25.93C19.85 25.72 19.82 25.51 19.81 25.3C19.81 25.25 19.81 25.19 19.81 25.13C19.81 25.08 19.81 25.02 19.81 24.97C19.81 24.91 19.82 24.86 19.82 24.81C19.83 24.76 19.84 24.72 19.84 24.68C19.85 24.63 19.86 24.59 19.87 24.56C19.88 24.53 19.89 24.5 19.9 24.47C19.9 24.45 19.91 24.43 19.92 24.42C19.92 24.41 19.92 24.4 19.92 24.4C19.93 24.4 19.93 24.4 19.93 24.4C19.93 24.39 19.94 24.39 19.94 24.4C19.94 24.4 19.94 24.4 19.94 24.4C19.94 24.4 19.95 24.41 19.94 24.41L19.94 24.41L19.94 24.43C19.93 24.44 19.93 24.46 19.92 24.48C19.91 24.51 19.9 24.53 19.9 24.57C19.89 24.6 19.88 24.64 19.88 24.68C19.87 24.72 19.87 24.77 19.86 24.82C19.86 24.87 19.86 24.92 19.86 24.97C19.86 25.02 19.86 25.08 19.86 25.13C19.86 25.19 19.87 25.24 19.87 25.3C19.89 25.53 19.94 25.75 19.97 25.91C19.99 26 20.01 26.06 20.02 26.11C20.03 26.16 20.04 26.19 20.04 26.19C20.04 26.19 20.04 26.2 20.04 26.21C20.04 26.21 20.04 26.22 20.04 26.22C20.04 26.23 20.03 26.24 20.03 26.24C20.02 26.24 20.01 26.25 20.01 26.25C20 26.25 20 26.25 19.99 26.25C19.98 26.25 19.98 26.25 19.97 26.25C19.96 26.24 19.96 26.24 19.95 26.23C19.95 26.23 19.95 26.22 19.95 26.22C19.95 26.21 19.95 26.21 19.94 26.21L19.94 26.21Z" fill="url(#paint_linear_9_1120_0)" fill-opacity="1.000000" fill-rule="nonzero"/>
		<path id="Vector" d="M20.31 25.49C20.31 25.49 20.31 25.46 20.3 25.41C20.3 25.37 20.29 25.3 20.29 25.22C20.28 25.13 20.28 25.04 20.28 24.93C20.28 24.88 20.29 24.83 20.29 24.78C20.29 24.72 20.3 24.67 20.31 24.61C20.31 24.56 20.32 24.5 20.33 24.45C20.33 24.42 20.34 24.4 20.34 24.37C20.35 24.35 20.36 24.32 20.36 24.29C20.37 24.27 20.37 24.25 20.38 24.22C20.39 24.2 20.39 24.17 20.4 24.15C20.41 24.13 20.41 24.11 20.42 24.09C20.43 24.07 20.44 24.05 20.44 24.03C20.46 23.99 20.47 23.95 20.49 23.92C20.5 23.89 20.51 23.87 20.52 23.84L20.56 23.78C20.56 23.78 20.56 23.77 20.57 23.77C20.57 23.77 20.57 23.77 20.57 23.77C20.58 23.78 20.58 23.78 20.58 23.78C20.58 23.78 20.58 23.79 20.58 23.79L20.58 23.79L20.55 23.86C20.54 23.88 20.52 23.9 20.51 23.93C20.5 23.96 20.49 24 20.48 24.04C20.47 24.06 20.46 24.08 20.46 24.1C20.45 24.12 20.44 24.14 20.44 24.16C20.43 24.18 20.43 24.21 20.42 24.23C20.42 24.26 20.41 24.28 20.41 24.3C20.4 24.33 20.4 24.35 20.39 24.38C20.39 24.41 20.39 24.43 20.38 24.46C20.38 24.51 20.37 24.56 20.37 24.62C20.36 24.67 20.36 24.73 20.36 24.78C20.36 24.83 20.36 24.88 20.36 24.93C20.36 25.03 20.37 25.13 20.38 25.21C20.38 25.29 20.39 25.36 20.4 25.4C20.41 25.45 20.41 25.47 20.41 25.47C20.41 25.49 20.41 25.5 20.4 25.51C20.4 25.52 20.39 25.53 20.37 25.53C20.36 25.54 20.35 25.53 20.33 25.53C20.32 25.52 20.31 25.51 20.31 25.49C20.31 25.49 20.31 25.49 20.31 25.49L20.31 25.49Z" fill="url(#paint_linear_9_1121_0)" fill-opacity="1.000000" fill-rule="nonzero"/>
		<path id="Vector" d="M20.72 24.8C20.72 24.8 20.72 24.79 20.72 24.78C20.72 24.77 20.72 24.75 20.73 24.73C20.73 24.7 20.73 24.68 20.73 24.65C20.74 24.61 20.74 24.58 20.74 24.54C20.75 24.5 20.75 24.46 20.76 24.42C20.77 24.37 20.78 24.33 20.79 24.28C20.79 24.23 20.81 24.18 20.82 24.13C20.83 24.08 20.84 24.03 20.86 23.98C20.87 23.93 20.88 23.88 20.9 23.84C20.91 23.81 20.92 23.79 20.93 23.77C20.93 23.74 20.94 23.72 20.95 23.7C20.96 23.67 20.97 23.65 20.98 23.63C20.99 23.61 21 23.59 21.01 23.57C21.03 23.53 21.04 23.49 21.06 23.46L21.11 23.36C21.13 23.34 21.14 23.31 21.16 23.3C21.18 23.26 21.19 23.24 21.19 23.24C21.2 23.23 21.2 23.23 21.2 23.23C21.2 23.23 21.21 23.23 21.21 23.23C21.21 23.23 21.21 23.24 21.21 23.24C21.21 23.24 21.21 23.24 21.21 23.25L21.21 23.25L21.18 23.31C21.17 23.33 21.15 23.35 21.14 23.38L21.09 23.47C21.07 23.51 21.06 23.54 21.04 23.58C21.04 23.6 21.03 23.63 21.02 23.65L21 23.71C20.99 23.74 20.98 23.76 20.97 23.78C20.97 23.8 20.96 23.83 20.95 23.85C20.94 23.9 20.93 23.95 20.92 24C20.9 24.05 20.89 24.1 20.88 24.15C20.88 24.2 20.87 24.24 20.86 24.29C20.85 24.34 20.85 24.38 20.84 24.43C20.84 24.47 20.84 24.51 20.83 24.55C20.83 24.59 20.83 24.62 20.83 24.65C20.82 24.68 20.82 24.71 20.82 24.73C20.82 24.75 20.82 24.77 20.82 24.78C20.82 24.79 20.82 24.8 20.82 24.8L20.82 24.8C20.82 24.81 20.82 24.83 20.81 24.84C20.8 24.85 20.79 24.85 20.77 24.85C20.76 24.85 20.75 24.85 20.74 24.84C20.73 24.83 20.72 24.81 20.72 24.8C20.72 24.8 20.72 24.8 20.72 24.8Z" fill="url(#paint_linear_9_1122_0)" fill-opacity="1.000000" fill-rule="nonzero"/>
		<path id="Vector" d="M21.77 22.99L21.76 23C21.75 23.01 21.74 23.02 21.73 23.03C21.72 23.04 21.71 23.05 21.69 23.07C21.68 23.09 21.66 23.11 21.64 23.13C21.63 23.15 21.61 23.18 21.59 23.21C21.58 23.23 21.56 23.26 21.54 23.3C21.53 23.33 21.51 23.36 21.49 23.4C21.48 23.43 21.46 23.47 21.45 23.5C21.4 23.63 21.35 23.76 21.31 23.9C21.3 23.95 21.28 24 21.27 24.03C21.27 24.07 21.26 24.08 21.26 24.08L21.26 24.09C21.26 24.1 21.25 24.11 21.24 24.12C21.23 24.12 21.21 24.13 21.2 24.12C21.19 24.12 21.18 24.11 21.17 24.1C21.16 24.09 21.16 24.07 21.16 24.06C21.16 24.06 21.16 24.06 21.16 24.06C21.16 24.06 21.17 24.04 21.18 24.01C21.19 23.97 21.21 23.93 21.23 23.87C21.28 23.74 21.33 23.61 21.39 23.48C21.41 23.44 21.43 23.41 21.45 23.37C21.46 23.34 21.48 23.31 21.5 23.27C21.52 23.24 21.54 23.21 21.56 23.18C21.58 23.16 21.6 23.13 21.62 23.11C21.64 23.09 21.66 23.07 21.67 23.05C21.69 23.03 21.7 23.02 21.72 23.01C21.73 23 21.74 22.99 21.75 22.98L21.76 22.98C21.77 22.97 21.77 22.97 21.77 22.97C21.77 22.97 21.78 22.98 21.78 22.98C21.78 22.98 21.78 22.98 21.78 22.99C21.78 22.99 21.78 22.99 21.78 22.99L21.77 22.99Z" fill="url(#paint_linear_9_1123_0)" fill-opacity="1.000000" fill-rule="nonzero"/>
		<path id="Vector" d="M19.74 26.74C19.74 26.74 19.77 26.74 19.83 26.74C19.88 26.74 19.95 26.73 20.04 26.73C20.22 26.71 20.46 26.68 20.7 26.62C20.75 26.61 20.81 26.59 20.87 26.58C20.9 26.57 20.93 26.56 20.95 26.55C20.98 26.54 21.01 26.53 21.03 26.52C21.09 26.5 21.14 26.48 21.18 26.46C21.23 26.44 21.28 26.41 21.31 26.39L21.37 26.36C21.39 26.35 21.4 26.34 21.42 26.33C21.44 26.32 21.45 26.31 21.46 26.3L21.5 26.27C21.52 26.26 21.53 26.24 21.55 26.24L21.56 26.22L21.56 26.22C21.56 26.22 21.56 26.22 21.57 26.22C21.57 26.22 21.57 26.22 21.57 26.22C21.57 26.22 21.57 26.22 21.57 26.22C21.58 26.22 21.58 26.22 21.58 26.22C21.58 26.22 21.58 26.23 21.58 26.23C21.58 26.23 21.58 26.23 21.58 26.23C21.58 26.23 21.58 26.23 21.58 26.23C21.58 26.24 21.58 26.24 21.58 26.24L21.56 26.25C21.55 26.26 21.53 26.28 21.51 26.29L21.48 26.32C21.47 26.33 21.45 26.34 21.44 26.35C21.42 26.36 21.41 26.37 21.39 26.39L21.33 26.42C21.29 26.44 21.25 26.47 21.2 26.49C21.16 26.52 21.1 26.54 21.05 26.56C21.03 26.57 21 26.59 20.97 26.6C20.94 26.61 20.92 26.62 20.89 26.63C20.83 26.65 20.77 26.67 20.71 26.68C20.48 26.75 20.23 26.79 20.05 26.82C19.96 26.83 19.88 26.83 19.83 26.84L19.77 26.84L19.75 26.84C19.73 26.84 19.72 26.84 19.71 26.83C19.7 26.82 19.69 26.81 19.69 26.79C19.69 26.78 19.7 26.77 19.71 26.76C19.71 26.75 19.73 26.74 19.74 26.74L19.74 26.74L19.74 26.74Z" fill="url(#paint_linear_9_1124_0)" fill-opacity="1.000000" fill-rule="nonzero"/>
		<path id="Vector" d="M20.02 26.18C20.02 26.18 20.04 26.17 20.09 26.17C20.14 26.16 20.21 26.15 20.29 26.14C20.49 26.1 20.69 26.06 20.89 26.01C20.94 25.99 20.99 25.97 21.05 25.96C21.1 25.94 21.15 25.92 21.2 25.9C21.25 25.89 21.29 25.87 21.34 25.85C21.36 25.84 21.38 25.83 21.4 25.82C21.42 25.81 21.44 25.8 21.45 25.79C21.49 25.77 21.52 25.75 21.55 25.73L21.59 25.7L21.62 25.68C21.64 25.66 21.65 25.65 21.66 25.64L21.68 25.63L21.68 25.62C21.68 25.62 21.68 25.62 21.69 25.62C21.69 25.62 21.69 25.62 21.69 25.63C21.69 25.63 21.7 25.63 21.7 25.63C21.7 25.64 21.69 25.64 21.69 25.64L21.68 25.65C21.67 25.66 21.66 25.68 21.64 25.69L21.61 25.72L21.57 25.75C21.54 25.77 21.51 25.79 21.47 25.82C21.45 25.83 21.43 25.84 21.41 25.85C21.39 25.86 21.37 25.87 21.35 25.88C21.31 25.9 21.26 25.93 21.21 25.95C21.17 25.97 21.12 25.99 21.06 26.01C21.01 26.03 20.96 26.05 20.91 26.06C20.71 26.13 20.51 26.18 20.31 26.22C20.23 26.24 20.16 26.26 20.11 26.26C20.06 26.27 20.03 26.28 20.03 26.28C20.02 26.28 20 26.28 19.99 26.27C19.98 26.26 19.97 26.25 19.97 26.24C19.97 26.22 19.97 26.21 19.98 26.2C19.99 26.19 20 26.18 20.02 26.18L20.02 26.18Z" fill="url(#paint_linear_9_1125_0)" fill-opacity="1.000000" fill-rule="nonzero"/>
		<path id="Vector" d="M20.37 25.48C20.37 25.48 20.39 25.48 20.44 25.47C20.48 25.47 20.55 25.46 20.63 25.45C20.71 25.44 20.8 25.43 20.89 25.41C20.94 25.4 20.99 25.39 21.04 25.38C21.09 25.37 21.14 25.36 21.19 25.35L21.27 25.33C21.29 25.32 21.32 25.31 21.34 25.3C21.39 25.29 21.44 25.27 21.48 25.25C21.51 25.24 21.53 25.24 21.55 25.23C21.57 25.22 21.59 25.21 21.61 25.2L21.64 25.18C21.65 25.18 21.66 25.17 21.67 25.17L21.7 25.15L21.72 25.14L21.75 25.12C21.76 25.12 21.76 25.11 21.77 25.11C21.78 25.1 21.8 25.09 21.81 25.08C21.82 25.07 21.84 25.06 21.85 25.05L21.87 25.03C21.89 25.01 21.9 25 21.91 24.99L21.92 24.97L21.92 24.97C21.93 24.97 21.93 24.97 21.93 24.97C21.93 24.97 21.94 24.97 21.94 24.97C21.94 24.98 21.94 24.98 21.94 24.98C21.94 24.98 21.94 24.99 21.94 24.99L21.93 25C21.92 25.02 21.9 25.03 21.89 25.04L21.86 25.07L21.83 25.1C21.82 25.11 21.8 25.12 21.79 25.13L21.77 25.15L21.74 25.17L21.72 25.18C21.71 25.19 21.7 25.19 21.69 25.2L21.66 25.22L21.63 25.23C21.61 25.24 21.59 25.25 21.57 25.26C21.55 25.28 21.52 25.29 21.5 25.3C21.46 25.32 21.41 25.34 21.36 25.35C21.33 25.36 21.31 25.37 21.28 25.38L21.21 25.41C21.16 25.42 21.11 25.44 21.06 25.45C21.01 25.46 20.96 25.48 20.91 25.49C20.81 25.51 20.72 25.53 20.64 25.54C20.56 25.55 20.5 25.56 20.45 25.57C20.4 25.58 20.38 25.58 20.38 25.58C20.36 25.58 20.35 25.58 20.34 25.57C20.33 25.56 20.32 25.55 20.32 25.53C20.32 25.52 20.32 25.51 20.33 25.5C20.34 25.49 20.35 25.48 20.37 25.48L20.37 25.48Z" fill="url(#paint_linear_9_1126_0)" fill-opacity="1.000000" fill-rule="nonzero"/>
		<path id="Vector" d="M20.77 24.75L20.79 24.75C20.8 24.75 20.81 24.75 20.83 24.75C20.87 24.75 20.92 24.74 20.99 24.74C21.02 24.73 21.05 24.73 21.09 24.72C21.13 24.71 21.17 24.71 21.21 24.7C21.25 24.69 21.29 24.68 21.33 24.66C21.37 24.65 21.41 24.63 21.45 24.62C21.47 24.61 21.49 24.6 21.51 24.59C21.53 24.58 21.55 24.57 21.57 24.56C21.6 24.54 21.64 24.52 21.68 24.5C21.71 24.48 21.74 24.46 21.77 24.44L21.82 24.4L21.86 24.37C21.88 24.35 21.9 24.33 21.92 24.31C21.94 24.29 21.96 24.28 21.97 24.26L22.01 24.22L22.01 24.22C22.01 24.21 22.02 24.21 22.02 24.21C22.02 24.21 22.03 24.21 22.03 24.22C22.03 24.22 22.03 24.22 22.03 24.22C22.03 24.22 22.03 24.23 22.03 24.23L21.99 24.28C21.98 24.29 21.96 24.31 21.94 24.33C21.93 24.35 21.9 24.37 21.88 24.4L21.84 24.43L21.8 24.47C21.77 24.49 21.74 24.52 21.7 24.54C21.67 24.56 21.63 24.59 21.59 24.61C21.57 24.62 21.55 24.63 21.53 24.64C21.51 24.65 21.49 24.66 21.47 24.67C21.43 24.69 21.39 24.71 21.35 24.73C21.31 24.74 21.27 24.76 21.23 24.77C21.18 24.78 21.14 24.79 21.11 24.8C21.07 24.81 21.03 24.82 21 24.82C20.93 24.84 20.88 24.84 20.84 24.85C20.82 24.85 20.8 24.85 20.79 24.85L20.77 24.85C20.76 24.85 20.75 24.84 20.74 24.84C20.73 24.83 20.72 24.81 20.72 24.8C20.72 24.79 20.72 24.77 20.73 24.76C20.74 24.75 20.75 24.75 20.77 24.75L20.77 24.75L20.77 24.75Z" fill="url(#paint_linear_9_1127_0)" fill-opacity="1.000000" fill-rule="nonzero"/>
		<path id="Vector" d="M21.23 24.04L21.27 24.02L21.38 23.98C21.48 23.94 21.6 23.89 21.73 23.83C21.85 23.78 21.97 23.71 22.05 23.66C22.08 23.65 22.09 23.63 22.11 23.62C22.13 23.61 22.14 23.6 22.15 23.59C22.16 23.58 22.17 23.57 22.18 23.57L22.18 23.56L22.18 23.56C22.19 23.55 22.19 23.55 22.19 23.55C22.19 23.55 22.2 23.55 22.2 23.56C22.2 23.56 22.2 23.56 22.2 23.56C22.2 23.57 22.2 23.57 22.2 23.57L22.19 23.58C22.18 23.59 22.18 23.6 22.17 23.61C22.16 23.62 22.14 23.63 22.13 23.64C22.11 23.66 22.09 23.67 22.07 23.69C21.99 23.75 21.87 23.82 21.75 23.89C21.63 23.95 21.51 24.01 21.42 24.06L21.31 24.11L21.26 24.13C21.25 24.14 21.24 24.14 21.22 24.13C21.21 24.13 21.2 24.12 21.2 24.11C21.19 24.09 21.19 24.08 21.19 24.07C21.2 24.05 21.21 24.04 21.22 24.04L21.22 24.04L21.23 24.04Z" fill="url(#paint_linear_9_1128_0)" fill-opacity="1.000000" fill-rule="nonzero"/>
		<path id="Vector" d="M23 22.52C23 22.52 22.99 22.53 22.98 22.53C22.97 22.53 22.95 22.54 22.93 22.55C22.87 22.58 22.81 22.61 22.75 22.64C22.66 22.69 22.57 22.75 22.48 22.81C22.37 22.89 22.27 22.98 22.17 23.07C22.14 23.1 22.11 23.13 22.08 23.15C22.05 23.18 22.02 23.21 21.99 23.24C21.97 23.27 21.94 23.3 21.91 23.33C21.88 23.36 21.85 23.39 21.82 23.42L21.73 23.52L21.64 23.62L21.6 23.67C21.59 23.69 21.57 23.71 21.56 23.73L21.47 23.84C21.44 23.87 21.41 23.91 21.38 23.95C21.35 23.99 21.32 24.03 21.3 24.07L21.21 24.19L21.17 24.25L21.13 24.31L21.05 24.43C21.02 24.48 20.99 24.52 20.97 24.56L20.89 24.69C20.86 24.73 20.84 24.78 20.81 24.82L20.73 24.95L20.66 25.08C20.64 25.13 20.61 25.17 20.59 25.21C20.56 25.26 20.54 25.3 20.52 25.35C20.43 25.52 20.34 25.7 20.26 25.87L20.14 26.12C20.13 26.14 20.13 26.16 20.12 26.18C20.11 26.2 20.1 26.22 20.09 26.24C20.07 26.29 20.05 26.33 20.04 26.37C20.02 26.41 20 26.44 19.99 26.48C19.97 26.52 19.95 26.56 19.94 26.6L19.85 26.82C19.84 26.85 19.82 26.89 19.81 26.92C19.8 26.95 19.78 26.99 19.77 27.02C19.75 27.08 19.72 27.14 19.7 27.2C19.68 27.26 19.66 27.31 19.64 27.36C19.62 27.41 19.61 27.46 19.59 27.5C19.53 27.67 19.5 27.76 19.5 27.76L19.5 27.76C19.49 27.78 19.49 27.79 19.48 27.8C19.47 27.81 19.46 27.82 19.45 27.82C19.44 27.83 19.42 27.83 19.41 27.83C19.4 27.83 19.38 27.83 19.37 27.83C19.36 27.82 19.35 27.81 19.34 27.81C19.33 27.8 19.32 27.79 19.31 27.77C19.31 27.76 19.3 27.75 19.3 27.74C19.3 27.72 19.3 27.71 19.31 27.7L19.31 27.69C19.31 27.69 19.34 27.6 19.41 27.43C19.42 27.39 19.44 27.35 19.46 27.3C19.48 27.25 19.5 27.19 19.53 27.13C19.55 27.08 19.58 27.02 19.6 26.95L19.64 26.85L19.69 26.75C19.72 26.68 19.75 26.61 19.78 26.53C19.8 26.49 19.81 26.45 19.83 26.42C19.85 26.38 19.87 26.34 19.89 26.3L19.94 26.18L19.97 26.12L20 26.05L20.12 25.8C20.21 25.63 20.3 25.46 20.4 25.28C20.42 25.24 20.45 25.19 20.47 25.15C20.5 25.11 20.52 25.06 20.55 25.02L20.63 24.89L20.71 24.76C20.73 24.71 20.76 24.67 20.79 24.63L20.87 24.5C20.9 24.46 20.93 24.41 20.95 24.37L21.04 24.25C21.06 24.23 21.07 24.21 21.08 24.19C21.1 24.17 21.11 24.15 21.13 24.13C21.16 24.09 21.19 24.05 21.22 24.01C21.25 23.97 21.28 23.93 21.31 23.89C21.34 23.85 21.37 23.82 21.4 23.78L21.49 23.67C21.5 23.65 21.52 23.63 21.53 23.62L21.58 23.56L21.67 23.46L21.76 23.37C21.79 23.33 21.82 23.3 21.85 23.27C21.88 23.24 21.91 23.21 21.94 23.18L22.03 23.1C22.06 23.07 22.09 23.05 22.12 23.02C22.23 22.93 22.34 22.85 22.45 22.77C22.54 22.71 22.63 22.65 22.73 22.6C22.79 22.56 22.85 22.53 22.91 22.51C22.94 22.5 22.95 22.49 22.97 22.49C22.98 22.49 22.99 22.48 22.99 22.48C22.99 22.48 23 22.48 23 22.49C23.01 22.49 23.01 22.49 23.01 22.5C23.01 22.5 23.01 22.51 23.01 22.51C23.01 22.52 23 22.52 23 22.52L23 22.52Z" fill="url(#paint_linear_9_1129_0)" fill-opacity="1.000000" fill-rule="nonzero"/>
		<path id="Vector" d="M17.8 24.48C17.81 24.44 17.82 24.41 17.84 24.38C17.84 24.37 17.84 24.37 17.84 24.37C17.66 24.54 17.25 25.23 17.38 26.27C17.54 27.48 18.34 27.88 18.86 27.67C18.88 27.66 18.89 27.65 18.9 27.65C17.44 25.47 17.8 24.48 17.8 24.48Z" fill="url(#paint_linear_9_1130_0)" fill-opacity="1.000000" fill-rule="nonzero"/>
		<path id="Vector" d="M18.71 25.76C17.82 24.93 17.84 24.41 17.84 24.38C17.82 24.41 17.81 24.44 17.8 24.48C17.8 24.48 17.45 25.47 18.9 27.65C19.45 27.4 19.72 26.7 18.71 25.76Z" fill="url(#paint_linear_9_1131_0)" fill-opacity="1.000000" fill-rule="nonzero"/>
		<path id="Vector" d="M17.79 27C17.79 27 17.8 27.01 17.82 27.03C17.83 27.04 17.84 27.05 17.86 27.07C17.87 27.07 17.88 27.08 17.88 27.09C17.89 27.1 17.9 27.1 17.91 27.11L17.95 27.14L17.98 27.16C18.01 27.18 18.03 27.19 18.06 27.21C18.09 27.23 18.12 27.24 18.15 27.26C18.16 27.27 18.18 27.27 18.19 27.28C18.21 27.29 18.22 27.29 18.24 27.3C18.27 27.31 18.3 27.33 18.33 27.34C18.37 27.35 18.4 27.36 18.43 27.37C18.46 27.38 18.49 27.39 18.52 27.39C18.55 27.4 18.57 27.4 18.6 27.41C18.65 27.42 18.69 27.42 18.72 27.43C18.73 27.43 18.75 27.43 18.75 27.43L18.77 27.43L18.77 27.43C18.77 27.43 18.78 27.43 18.78 27.43C18.78 27.43 18.79 27.44 18.79 27.44C18.79 27.44 18.79 27.45 18.79 27.45C18.8 27.45 18.8 27.46 18.8 27.46C18.8 27.46 18.79 27.47 18.79 27.47C18.79 27.48 18.79 27.48 18.79 27.48C18.78 27.48 18.78 27.49 18.78 27.49C18.77 27.49 18.77 27.49 18.76 27.49L18.76 27.49L18.75 27.49C18.74 27.49 18.73 27.48 18.71 27.48C18.68 27.48 18.64 27.47 18.59 27.46C18.56 27.45 18.53 27.45 18.51 27.44C18.48 27.43 18.45 27.42 18.41 27.41C18.38 27.4 18.35 27.39 18.32 27.38C18.29 27.36 18.26 27.35 18.22 27.33C18.21 27.33 18.19 27.32 18.18 27.31C18.16 27.3 18.15 27.29 18.13 27.29C18.1 27.27 18.07 27.25 18.04 27.23C18.02 27.22 17.99 27.2 17.97 27.18L17.93 27.15L17.9 27.13C17.89 27.12 17.88 27.11 17.87 27.1C17.86 27.09 17.86 27.09 17.85 27.08C17.83 27.06 17.82 27.05 17.81 27.04L17.78 27.01C17.78 27 17.77 27 17.77 27C17.77 27 17.78 27 17.78 27C17.78 27 17.78 27 17.78 27C17.78 27 17.78 27 17.79 27L17.79 27Z" fill="url(#paint_linear_9_1132_0)" fill-opacity="1.000000" fill-rule="nonzero"/>
		<path id="Vector" d="M18.55 27.17C18.55 27.17 18.54 27.16 18.51 27.15C18.48 27.14 18.45 27.12 18.4 27.1C18.29 27.05 18.18 26.99 18.08 26.93C18.05 26.91 18.02 26.89 17.99 26.87C17.97 26.85 17.94 26.83 17.91 26.82C17.89 26.8 17.87 26.78 17.84 26.76C17.82 26.74 17.8 26.72 17.79 26.7C17.77 26.68 17.75 26.67 17.74 26.65C17.73 26.64 17.72 26.62 17.71 26.61C17.7 26.6 17.69 26.59 17.69 26.58L17.68 26.57C17.68 26.57 17.68 26.57 17.68 26.57C17.68 26.57 17.68 26.56 17.68 26.56C17.68 26.56 17.69 26.56 17.69 26.56C17.69 26.56 17.69 26.56 17.69 26.56L17.7 26.57C17.7 26.58 17.71 26.59 17.72 26.6C17.73 26.61 17.74 26.63 17.75 26.64C17.77 26.65 17.78 26.67 17.8 26.69C17.82 26.7 17.84 26.72 17.86 26.74C17.88 26.76 17.91 26.78 17.93 26.79C17.96 26.81 17.98 26.83 18.01 26.85C18.04 26.86 18.07 26.88 18.09 26.9C18.2 26.96 18.31 27.01 18.42 27.05C18.47 27.07 18.51 27.09 18.53 27.1C18.56 27.11 18.57 27.11 18.57 27.11C18.58 27.11 18.58 27.12 18.58 27.12C18.59 27.12 18.59 27.12 18.59 27.13C18.59 27.13 18.59 27.14 18.59 27.14C18.6 27.14 18.59 27.15 18.59 27.15C18.59 27.15 18.59 27.16 18.59 27.16C18.59 27.16 18.58 27.17 18.58 27.17C18.58 27.17 18.57 27.17 18.57 27.17C18.56 27.17 18.56 27.17 18.56 27.17L18.55 27.17L18.55 27.17Z" fill="url(#paint_linear_9_1133_0)" fill-opacity="1.000000" fill-rule="nonzero"/>
		<path id="Vector" d="M18.33 26.75C18.33 26.75 18.32 26.75 18.29 26.73C18.27 26.72 18.23 26.7 18.19 26.67C18.15 26.65 18.11 26.62 18.06 26.58C18.03 26.56 18.01 26.54 17.98 26.52C17.96 26.5 17.93 26.48 17.91 26.46C17.89 26.44 17.86 26.42 17.84 26.4C17.83 26.38 17.82 26.37 17.81 26.36C17.8 26.35 17.79 26.34 17.78 26.33C17.77 26.32 17.76 26.31 17.75 26.29C17.74 26.28 17.73 26.27 17.72 26.26C17.71 26.25 17.71 26.24 17.7 26.23C17.69 26.22 17.68 26.21 17.68 26.2C17.66 26.18 17.65 26.16 17.64 26.14C17.63 26.13 17.62 26.11 17.62 26.1L17.6 26.06C17.6 26.06 17.6 26.06 17.6 26.06C17.6 26.05 17.6 26.05 17.6 26.05C17.6 26.05 17.6 26.05 17.61 26.05C17.61 26.05 17.61 26.05 17.61 26.06L17.63 26.09C17.64 26.1 17.65 26.12 17.66 26.14C17.67 26.15 17.68 26.17 17.69 26.19C17.7 26.2 17.71 26.21 17.71 26.22C17.72 26.23 17.73 26.24 17.74 26.25C17.75 26.26 17.76 26.27 17.77 26.28C17.78 26.29 17.79 26.3 17.8 26.31C17.81 26.32 17.82 26.33 17.83 26.34C17.84 26.35 17.85 26.36 17.86 26.37C17.89 26.39 17.91 26.41 17.93 26.43C17.96 26.45 17.98 26.47 18.01 26.49C18.03 26.51 18.06 26.53 18.08 26.54C18.13 26.58 18.18 26.6 18.22 26.63C18.26 26.65 18.29 26.67 18.32 26.68C18.34 26.69 18.36 26.7 18.36 26.7C18.36 26.7 18.37 26.71 18.37 26.72C18.37 26.72 18.37 26.73 18.37 26.74C18.37 26.74 18.36 26.75 18.36 26.75C18.35 26.76 18.34 26.76 18.33 26.75L18.33 26.75L18.33 26.75Z" fill="url(#paint_linear_9_1134_0)" fill-opacity="1.000000" fill-rule="nonzero"/>
		<path id="Vector" d="M18.14 26.33L18.13 26.32C18.13 26.31 18.12 26.31 18.11 26.3C18.1 26.29 18.08 26.28 18.07 26.27C18.06 26.26 18.04 26.24 18.02 26.23C18.01 26.21 17.99 26.2 17.97 26.18C17.95 26.16 17.93 26.14 17.91 26.12C17.89 26.1 17.87 26.08 17.85 26.06C17.83 26.04 17.81 26.01 17.79 25.99C17.78 25.97 17.76 25.94 17.74 25.92C17.73 25.91 17.72 25.89 17.71 25.88C17.71 25.87 17.7 25.86 17.69 25.85L17.67 25.81C17.66 25.8 17.65 25.79 17.65 25.78C17.64 25.75 17.62 25.73 17.61 25.71L17.59 25.66C17.58 25.64 17.57 25.63 17.57 25.62C17.56 25.59 17.55 25.58 17.55 25.58C17.55 25.58 17.55 25.57 17.55 25.57C17.55 25.57 17.55 25.57 17.55 25.57C17.56 25.57 17.56 25.57 17.56 25.57C17.56 25.57 17.56 25.57 17.56 25.57L17.56 25.57L17.58 25.61C17.59 25.62 17.59 25.64 17.6 25.65L17.63 25.7C17.64 25.72 17.65 25.74 17.67 25.77C17.67 25.78 17.68 25.79 17.69 25.8C17.7 25.81 17.7 25.82 17.71 25.83C17.72 25.84 17.73 25.85 17.74 25.86C17.75 25.88 17.76 25.89 17.77 25.9C17.78 25.92 17.8 25.94 17.82 25.97C17.84 25.99 17.86 26.01 17.88 26.03C17.9 26.05 17.92 26.07 17.94 26.09C17.96 26.11 17.98 26.13 18 26.14C18.02 26.16 18.04 26.17 18.06 26.19C18.07 26.2 18.09 26.22 18.1 26.23C18.12 26.24 18.13 26.25 18.14 26.25C18.15 26.26 18.16 26.27 18.17 26.27L18.17 26.28C18.18 26.28 18.18 26.28 18.18 26.29C18.18 26.29 18.19 26.29 18.19 26.3C18.19 26.3 18.19 26.3 18.19 26.31C18.19 26.31 18.18 26.32 18.18 26.32C18.18 26.32 18.18 26.32 18.17 26.33C18.17 26.33 18.17 26.33 18.16 26.33C18.16 26.33 18.15 26.33 18.15 26.33C18.15 26.33 18.14 26.33 18.14 26.33C18.14 26.33 18.14 26.33 18.14 26.33Z" fill="url(#paint_linear_9_1135_0)" fill-opacity="1.000000" fill-rule="nonzero"/>
		<path id="Vector" d="M17.63 25.22C17.63 25.22 17.63 25.22 17.63 25.23C17.63 25.24 17.63 25.24 17.63 25.25C17.63 25.26 17.64 25.27 17.64 25.29C17.64 25.3 17.65 25.31 17.65 25.33C17.66 25.34 17.66 25.36 17.67 25.38C17.68 25.4 17.69 25.41 17.7 25.43C17.71 25.45 17.72 25.47 17.73 25.49C17.74 25.51 17.75 25.53 17.76 25.55C17.81 25.61 17.86 25.68 17.91 25.74C17.93 25.77 17.95 25.79 17.96 25.81L17.98 25.83L17.98 25.83C17.98 25.84 17.99 25.84 17.99 25.85C17.99 25.86 17.98 25.87 17.98 25.87C17.97 25.88 17.96 25.88 17.95 25.88C17.95 25.88 17.94 25.87 17.93 25.87L17.93 25.87L17.91 25.84C17.9 25.83 17.89 25.8 17.87 25.78C17.82 25.71 17.77 25.64 17.73 25.56C17.72 25.54 17.71 25.52 17.7 25.5C17.69 25.48 17.68 25.46 17.67 25.44C17.66 25.42 17.66 25.41 17.65 25.39C17.64 25.37 17.64 25.35 17.63 25.33C17.63 25.32 17.62 25.3 17.62 25.29C17.62 25.28 17.62 25.26 17.62 25.25C17.62 25.24 17.62 25.24 17.62 25.23C17.62 25.22 17.62 25.22 17.62 25.22C17.62 25.22 17.62 25.22 17.62 25.22C17.62 25.22 17.62 25.22 17.62 25.22C17.62 25.22 17.62 25.22 17.62 25.22C17.62 25.22 17.62 25.21 17.62 25.21C17.62 25.21 17.63 25.22 17.63 25.22C17.63 25.22 17.63 25.22 17.63 25.22Z" fill="url(#paint_linear_9_1136_0)" fill-opacity="1.000000" fill-rule="nonzero"/>
		<path id="Vector" d="M18.74 27.44C18.74 27.44 18.75 27.43 18.77 27.4C18.78 27.38 18.81 27.34 18.83 27.3C18.9 27.18 18.96 27.07 19 26.95C19.02 26.92 19.03 26.88 19.04 26.85C19.04 26.84 19.05 26.82 19.05 26.8C19.06 26.79 19.06 26.77 19.07 26.75C19.08 26.72 19.08 26.69 19.09 26.66C19.09 26.63 19.1 26.6 19.1 26.58C19.1 26.57 19.1 26.55 19.1 26.54C19.1 26.53 19.1 26.52 19.1 26.51C19.1 26.5 19.11 26.49 19.1 26.48C19.1 26.47 19.1 26.46 19.1 26.45C19.1 26.44 19.1 26.42 19.1 26.42C19.1 26.41 19.1 26.4 19.1 26.4L19.1 26.4C19.1 26.4 19.1 26.4 19.1 26.4C19.1 26.4 19.11 26.4 19.11 26.4C19.11 26.4 19.11 26.4 19.11 26.4C19.11 26.4 19.11 26.4 19.11 26.4L19.11 26.42C19.12 26.42 19.12 26.44 19.12 26.45C19.12 26.46 19.12 26.47 19.12 26.48C19.12 26.49 19.12 26.5 19.12 26.51C19.12 26.52 19.12 26.53 19.12 26.54C19.12 26.55 19.12 26.57 19.12 26.58C19.12 26.61 19.11 26.64 19.11 26.67C19.11 26.7 19.1 26.73 19.09 26.76C19.09 26.78 19.09 26.79 19.08 26.81C19.08 26.83 19.07 26.84 19.07 26.86C19.06 26.89 19.05 26.93 19.04 26.96C18.99 27.09 18.94 27.21 18.88 27.32C18.85 27.37 18.83 27.41 18.82 27.43C18.81 27.45 18.8 27.46 18.8 27.46L18.79 27.48C18.79 27.48 18.78 27.48 18.78 27.48C18.78 27.49 18.77 27.49 18.77 27.49C18.77 27.49 18.76 27.49 18.76 27.49C18.75 27.49 18.75 27.49 18.75 27.49C18.74 27.48 18.74 27.48 18.74 27.48C18.74 27.47 18.73 27.47 18.73 27.47C18.73 27.46 18.73 27.46 18.73 27.45C18.74 27.45 18.74 27.45 18.74 27.44L18.74 27.44L18.74 27.44Z" fill="url(#paint_linear_9_1137_0)" fill-opacity="1.000000" fill-rule="nonzero"/>
		<path id="Vector" d="M18.56 27.12C18.56 27.12 18.57 27.11 18.58 27.08C18.6 27.06 18.61 27.02 18.63 26.98C18.69 26.87 18.73 26.76 18.77 26.65C18.78 26.62 18.79 26.59 18.8 26.56C18.81 26.53 18.82 26.5 18.83 26.47C18.83 26.44 18.84 26.41 18.85 26.39C18.85 26.37 18.85 26.36 18.85 26.35C18.85 26.33 18.86 26.32 18.86 26.31C18.86 26.28 18.86 26.26 18.86 26.24L18.86 26.22C18.86 26.21 18.86 26.2 18.86 26.19C18.86 26.18 18.86 26.17 18.86 26.16C18.86 26.15 18.85 26.15 18.85 26.15L18.85 26.15C18.85 26.15 18.85 26.15 18.85 26.15C18.86 26.15 18.86 26.14 18.86 26.14C18.86 26.14 18.86 26.14 18.86 26.14C18.86 26.14 18.86 26.14 18.86 26.14C18.86 26.14 18.86 26.14 18.86 26.14C18.86 26.14 18.86 26.14 18.86 26.14C18.87 26.14 18.87 26.14 18.87 26.14C18.87 26.15 18.87 26.15 18.87 26.15C18.87 26.15 18.87 26.15 18.87 26.16C18.87 26.17 18.87 26.18 18.87 26.19C18.88 26.2 18.88 26.21 18.88 26.22C18.88 26.22 18.88 26.23 18.88 26.24C18.88 26.26 18.88 26.29 18.88 26.31C18.88 26.32 18.87 26.34 18.87 26.35C18.87 26.36 18.87 26.38 18.87 26.39C18.87 26.42 18.86 26.45 18.85 26.48C18.85 26.51 18.84 26.54 18.83 26.57C18.82 26.6 18.82 26.63 18.81 26.66C18.77 26.78 18.73 26.89 18.68 27C18.66 27.05 18.65 27.08 18.63 27.11C18.62 27.13 18.61 27.15 18.61 27.15C18.61 27.15 18.61 27.16 18.61 27.16C18.6 27.16 18.6 27.16 18.6 27.17C18.59 27.17 18.59 27.17 18.59 27.17C18.58 27.17 18.58 27.17 18.57 27.16C18.57 27.16 18.57 27.16 18.56 27.16C18.56 27.15 18.56 27.15 18.56 27.15C18.56 27.14 18.56 27.14 18.56 27.13C18.56 27.13 18.56 27.13 18.56 27.12C18.56 27.12 18.56 27.12 18.56 27.12Z" fill="url(#paint_linear_9_1138_0)" fill-opacity="1.000000" fill-rule="nonzero"/>
		<path id="Vector" d="M18.35 26.72C18.35 26.72 18.35 26.71 18.37 26.69C18.38 26.66 18.4 26.63 18.42 26.59C18.44 26.55 18.47 26.5 18.49 26.45C18.5 26.42 18.51 26.4 18.53 26.37C18.54 26.34 18.55 26.31 18.56 26.29C18.56 26.27 18.57 26.26 18.57 26.24C18.58 26.23 18.58 26.21 18.59 26.2C18.6 26.17 18.61 26.14 18.61 26.12C18.62 26.1 18.62 26.09 18.62 26.08C18.62 26.06 18.63 26.05 18.63 26.04C18.63 26.03 18.63 26.02 18.63 26.02C18.63 26.01 18.63 26.01 18.63 26C18.63 25.99 18.64 25.99 18.64 25.98C18.64 25.98 18.64 25.97 18.64 25.96C18.64 25.96 18.64 25.95 18.64 25.95C18.64 25.94 18.64 25.94 18.64 25.93C18.64 25.92 18.64 25.91 18.64 25.9C18.64 25.89 18.64 25.88 18.64 25.88C18.64 25.87 18.63 25.86 18.63 25.85C18.63 25.84 18.63 25.83 18.63 25.82C18.63 25.82 18.63 25.81 18.63 25.81L18.63 25.81C18.63 25.81 18.63 25.81 18.63 25.81C18.63 25.81 18.63 25.81 18.63 25.81C18.63 25.81 18.63 25.81 18.64 25.81C18.64 25.81 18.64 25.81 18.64 25.81C18.64 25.81 18.64 25.81 18.64 25.82C18.64 25.83 18.65 25.84 18.65 25.85C18.65 25.86 18.65 25.87 18.65 25.87C18.65 25.88 18.65 25.89 18.65 25.9C18.66 25.91 18.66 25.92 18.66 25.93C18.66 25.94 18.66 25.94 18.66 25.95C18.66 25.95 18.66 25.96 18.66 25.96C18.66 25.97 18.66 25.98 18.66 25.98C18.66 25.99 18.66 25.99 18.66 26C18.66 26.01 18.65 26.01 18.65 26.02C18.65 26.03 18.65 26.03 18.65 26.04C18.65 26.05 18.65 26.07 18.65 26.08C18.64 26.09 18.64 26.11 18.64 26.12C18.63 26.15 18.63 26.18 18.62 26.21C18.62 26.22 18.61 26.24 18.61 26.25C18.6 26.27 18.6 26.28 18.59 26.3C18.58 26.33 18.57 26.36 18.56 26.39C18.55 26.41 18.54 26.44 18.53 26.47C18.51 26.52 18.49 26.57 18.47 26.61C18.45 26.66 18.43 26.69 18.42 26.71C18.41 26.74 18.4 26.75 18.4 26.75C18.39 26.76 18.39 26.76 18.38 26.77C18.37 26.77 18.36 26.77 18.36 26.76C18.35 26.76 18.35 26.75 18.34 26.74C18.34 26.74 18.34 26.73 18.35 26.72L18.35 26.72Z" fill="url(#paint_linear_9_1139_0)" fill-opacity="1.000000" fill-rule="nonzero"/>
		<path id="Vector" d="M18.13 26.28L18.14 26.28C18.14 26.27 18.15 26.27 18.15 26.26C18.16 26.24 18.18 26.21 18.2 26.18C18.21 26.16 18.22 26.14 18.23 26.12C18.24 26.11 18.24 26.08 18.25 26.06C18.26 26.04 18.27 26.02 18.28 25.99C18.28 25.97 18.29 25.94 18.3 25.92C18.3 25.91 18.3 25.9 18.3 25.88C18.31 25.87 18.31 25.86 18.31 25.85C18.31 25.82 18.32 25.8 18.32 25.77C18.32 25.75 18.32 25.73 18.32 25.7C18.32 25.69 18.32 25.68 18.32 25.67C18.32 25.66 18.32 25.65 18.32 25.64C18.31 25.62 18.31 25.61 18.31 25.59C18.31 25.58 18.3 25.56 18.3 25.55C18.3 25.53 18.29 25.52 18.29 25.52C18.29 25.52 18.29 25.52 18.29 25.52C18.29 25.51 18.29 25.51 18.29 25.51C18.3 25.51 18.3 25.51 18.3 25.51C18.3 25.51 18.3 25.51 18.3 25.51C18.3 25.51 18.3 25.51 18.3 25.51C18.3 25.51 18.31 25.51 18.31 25.51C18.31 25.51 18.31 25.53 18.32 25.55C18.32 25.56 18.32 25.57 18.33 25.59C18.33 25.6 18.33 25.62 18.34 25.64C18.34 25.65 18.34 25.66 18.34 25.67C18.34 25.68 18.34 25.69 18.34 25.7C18.34 25.73 18.35 25.75 18.34 25.77C18.34 25.8 18.34 25.82 18.34 25.85C18.34 25.86 18.34 25.88 18.34 25.89C18.34 25.9 18.33 25.91 18.33 25.93C18.33 25.95 18.32 25.98 18.32 26C18.31 26.03 18.3 26.05 18.29 26.08C18.29 26.1 18.28 26.12 18.27 26.14C18.26 26.17 18.25 26.18 18.25 26.2C18.23 26.24 18.21 26.27 18.2 26.29C18.19 26.3 18.19 26.31 18.19 26.31L18.18 26.32C18.18 26.32 18.18 26.33 18.17 26.33C18.17 26.33 18.17 26.33 18.16 26.33C18.16 26.33 18.15 26.33 18.15 26.33C18.15 26.33 18.14 26.33 18.14 26.33C18.14 26.33 18.13 26.32 18.13 26.32C18.13 26.32 18.13 26.31 18.13 26.31C18.13 26.31 18.13 26.3 18.13 26.3C18.13 26.29 18.13 26.29 18.13 26.29L18.13 26.29L18.13 26.28Z" fill="url(#paint_linear_9_1140_0)" fill-opacity="1.000000" fill-rule="nonzero"/>
		<path id="Vector" d="M17.94 25.83C17.94 25.83 17.95 25.82 17.95 25.81C17.96 25.79 17.96 25.76 17.97 25.74C17.98 25.68 18 25.6 18.01 25.53C18.03 25.45 18.04 25.38 18.04 25.31C18.04 25.3 18.04 25.28 18.04 25.27C18.04 25.26 18.04 25.25 18.04 25.24C18.04 25.23 18.04 25.23 18.04 25.22C18.04 25.22 18.04 25.22 18.04 25.22L18.04 25.21C18.04 25.21 18.04 25.21 18.04 25.21C18.04 25.21 18.04 25.21 18.04 25.21C18.04 25.21 18.04 25.21 18.05 25.21C18.05 25.21 18.05 25.21 18.05 25.21C18.05 25.21 18.05 25.21 18.05 25.22C18.05 25.23 18.05 25.23 18.06 25.24C18.06 25.25 18.06 25.26 18.06 25.27C18.06 25.28 18.06 25.3 18.06 25.31C18.06 25.38 18.06 25.46 18.05 25.53C18.04 25.61 18.03 25.69 18.02 25.75C18.01 25.78 18.01 25.8 18.01 25.82C18 25.83 18 25.84 18 25.84C18 25.85 18 25.86 17.99 25.86C17.98 25.87 17.98 25.87 17.97 25.87C17.96 25.86 17.95 25.86 17.95 25.85C17.95 25.85 17.94 25.84 17.94 25.83C17.94 25.83 17.94 25.83 17.94 25.83L17.94 25.83Z" fill="url(#paint_linear_9_1141_0)" fill-opacity="1.000000" fill-rule="nonzero"/>
		<path id="Vector" d="M17.82 24.48C17.82 24.48 17.81 24.49 17.81 24.49C17.81 24.5 17.81 24.51 17.81 24.52C17.8 24.56 17.79 24.6 17.79 24.64C17.78 24.7 17.78 24.76 17.78 24.82C17.78 24.9 17.79 24.98 17.8 25.06C17.8 25.08 17.8 25.11 17.81 25.13C17.81 25.15 17.82 25.17 17.82 25.2C17.82 25.22 17.83 25.24 17.83 25.27C17.84 25.29 17.84 25.32 17.85 25.34C17.85 25.37 17.86 25.39 17.87 25.42C17.87 25.44 17.88 25.47 17.89 25.49C17.89 25.51 17.89 25.52 17.9 25.53C17.9 25.54 17.9 25.56 17.91 25.57C17.91 25.6 17.92 25.62 17.93 25.65C17.94 25.67 17.95 25.7 17.96 25.73C17.96 25.75 17.97 25.78 17.98 25.81C17.99 25.83 18 25.86 18.01 25.89L18.03 25.93L18.04 25.97C18.05 26 18.06 26.02 18.07 26.05C18.08 26.08 18.1 26.1 18.11 26.13C18.12 26.16 18.13 26.18 18.14 26.21C18.15 26.24 18.17 26.26 18.18 26.29L18.22 26.37C18.23 26.4 18.24 26.42 18.25 26.45L18.29 26.53C18.31 26.55 18.32 26.58 18.33 26.61C18.39 26.71 18.44 26.81 18.49 26.9C18.52 26.95 18.55 27 18.58 27.04L18.6 27.08L18.62 27.11L18.66 27.18C18.67 27.2 18.68 27.22 18.7 27.24C18.71 27.26 18.72 27.28 18.74 27.3C18.76 27.34 18.79 27.38 18.81 27.42L18.85 27.47L18.88 27.52L18.95 27.62C18.97 27.65 18.98 27.67 19 27.7C19.02 27.72 19.04 27.75 19.05 27.77L19.15 27.9L19.15 27.9C19.15 27.91 19.15 27.91 19.16 27.92C19.16 27.93 19.16 27.94 19.16 27.95C19.16 27.95 19.15 27.96 19.15 27.97C19.14 27.97 19.14 27.98 19.13 27.98C19.13 27.99 19.12 27.99 19.11 27.99C19.1 28 19.1 28 19.09 27.99C19.08 27.99 19.07 27.99 19.07 27.99C19.06 27.98 19.05 27.98 19.05 27.97C19.05 27.97 19.05 27.97 19.05 27.97L18.96 27.83L18.91 27.76C18.89 27.74 18.87 27.71 18.85 27.68L18.79 27.58C18.78 27.56 18.77 27.55 18.76 27.53L18.72 27.47C18.7 27.43 18.68 27.39 18.65 27.35C18.64 27.33 18.63 27.31 18.61 27.29L18.58 27.23L18.54 27.16L18.52 27.13L18.5 27.09L18.42 26.95C18.37 26.85 18.31 26.75 18.26 26.64C18.25 26.62 18.23 26.59 18.22 26.56L18.19 26.48C18.17 26.46 18.16 26.43 18.15 26.4L18.11 26.32C18.1 26.29 18.09 26.27 18.08 26.24C18.07 26.21 18.06 26.18 18.05 26.16C18.03 26.13 18.02 26.1 18.01 26.07L17.98 25.99L17.97 25.95L17.95 25.91L17.93 25.83C17.92 25.8 17.91 25.77 17.9 25.74C17.89 25.72 17.89 25.69 17.88 25.66C17.87 25.64 17.86 25.61 17.86 25.58C17.85 25.57 17.85 25.56 17.85 25.54C17.84 25.53 17.84 25.52 17.84 25.5C17.83 25.48 17.82 25.45 17.82 25.43L17.8 25.35C17.8 25.33 17.79 25.3 17.79 25.28C17.79 25.25 17.78 25.23 17.78 25.2C17.77 25.18 17.77 25.16 17.77 25.13C17.76 25.11 17.76 25.09 17.76 25.07C17.75 24.99 17.75 24.91 17.75 24.82C17.75 24.76 17.75 24.7 17.76 24.64C17.76 24.6 17.77 24.56 17.78 24.52C17.78 24.5 17.79 24.49 17.79 24.49C17.79 24.48 17.79 24.47 17.79 24.47C17.79 24.47 17.8 24.47 17.8 24.47C17.8 24.47 17.8 24.47 17.81 24.47C17.81 24.47 17.81 24.47 17.81 24.47C17.82 24.48 17.82 24.48 17.82 24.48L17.82 24.48Z" fill="url(#paint_linear_9_1142_0)" fill-opacity="1.000000" fill-rule="nonzero"/>
	</g>
	<g mask="url(#mask9_1104)">
		<circle id="Ellipse 31" cx="18.344849" cy="18.344849" r="17.034479" stroke="#FFFFFF" stroke-opacity="1.000000" stroke-width="2.620689"/>
	</g>
</svg>
