<svg width="36.689697" height="36.689636" viewBox="0 0 36.6897 36.6896" fill="none" xmlns="http://www.w3.org/2000/svg" xmlns:xlink="http://www.w3.org/1999/xlink">
	<desc>
			Created with Pixso.
	</desc>
	<defs>
		<linearGradient x1="12.105771" y1="9.999998" x2="28.615383" y2="18.173079" id="paint_linear_9_1097_0" gradientUnits="userSpaceOnUse">
			<stop stop-color="#C9AB07"/>
			<stop offset="1.000000" stop-color="#FBD60C"/>
		</linearGradient>
	</defs>
	<mask id="mask9_1093" mask-type="alpha" maskUnits="userSpaceOnUse" x="0.000000" y="0.000000" width="36.689697" height="36.689636">
		<circle id="mask" cx="18.344849" cy="18.344849" r="18.344824" fill="#C4C4C4" fill-opacity="1.000000"/>
	</mask>
	<g mask="url(#mask9_1093)">
		<circle id="Ellipse 31" cx="18.344849" cy="18.344849" r="18.344824" fill="#0267AB" fill-opacity="1.000000"/>
		<circle id="Ellipse 31" cx="18.344849" cy="18.344849" r="17.034479" stroke="#FFFFFF" stroke-opacity="1.000000" stroke-width="2.620689"/>
	</g>
	<g mask="url(#mask9_1093)">
		<path id="Vector" d="M22.86 18.39L25.59 21.13L20.34 26.37C19.5 27.2 18.14 27.2 17.3 26.37L12.01 21.12L14.74 18.36L17.48 21.19C18.2 21.94 19.4 21.94 20.13 21.19L22.86 18.39L22.86 18.39Z" fill="#FFFFFF" fill-opacity="1.000000" fill-rule="nonzero"/>
		<path id="Vector" d="M28.61 15.74C28.61 16.61 28.42 17.43 28.07 18.17L24.14 14.32C23.43 13.62 22.29 13.62 21.56 14.31L18.8 16.97L16.06 14.29C15.36 13.6 14.25 13.58 13.52 14.24L9.53 18.17C9.19 17.43 9 16.61 9 15.74C9 12.57 11.57 10 14.74 10C16.33 10 17.76 10.63 18.8 11.67C19.84 10.64 21.28 10 22.86 10C26.03 10 28.61 12.57 28.61 15.74L28.61 15.74Z" fill="url(#paint_linear_9_1097_0)" fill-opacity="1.000000" fill-rule="nonzero"/>
	</g>
</svg>
