<svg width="36.689697" height="36.689636" viewBox="0 0 36.6897 36.6896" fill="none" xmlns="http://www.w3.org/2000/svg" xmlns:xlink="http://www.w3.org/1999/xlink">
	<desc>
			Created with Pixso.
	</desc>
	<defs/>
	<mask id="mask9_1145" mask-type="alpha" maskUnits="userSpaceOnUse" x="0.000000" y="0.000000" width="36.689697" height="36.689636">
		<circle id="mask" cx="18.344849" cy="18.344849" r="18.344824" fill="#C4C4C4" fill-opacity="1.000000"/>
	</mask>
	<g mask="url(#mask9_1145)">
		<circle id="Ellipse 32" cx="18.344849" cy="18.344849" r="18.344824" fill="#D1FF49" fill-opacity="1.000000"/>
	</g>
	<g mask="url(#mask9_1145)">
		<path id="Vector" d="M26.51 19.48C26.42 21.46 24.76 23 22.82 23L20.2 23C20.06 23 19.92 22.94 19.82 22.84L14.97 17.85C14.93 17.81 14.88 17.79 14.83 17.79L12.1 17.79C12.07 17.79 12.04 17.79 12.02 17.79C11.2 17.84 10.58 18.56 10.62 19.4C10.67 20.2 11.33 20.83 12.14 20.83L16.55 20.83L18.66 23L12.19 23C11.29 23 10.41 22.69 9.74 22.09C8.71 21.16 8.28 19.74 8.64 18.32C8.72 17.99 8.86 17.66 9.04 17.37C9.74 16.25 10.89 15.63 12.1 15.63L15.45 15.63C15.66 15.63 15.87 15.72 16.02 15.87L20.75 20.74C20.81 20.8 20.9 20.83 20.98 20.83L22.88 20.83C23.69 20.83 24.37 20.18 24.4 19.37C24.42 18.95 24.27 18.56 23.99 18.26C23.71 17.96 23.33 17.79 22.92 17.79L20.73 17.79L20.74 17.58C20.74 16.96 20.61 16.37 20.38 15.82C20.25 15.52 20.09 15.24 19.91 14.97C19.1 13.84 17.8 13.16 16.44 13.16C15.07 13.16 13.83 13.81 13.02 14.91L10.58 14.91C11.61 12.52 13.88 11 16.44 11C18.99 11 21.22 12.5 22.26 14.84C22.38 15.09 22.47 15.36 22.56 15.63L22.93 15.63C23.88 15.63 24.78 16.01 25.46 16.71C26.17 17.44 26.55 18.43 26.51 19.48L26.51 19.48Z" fill="#316AEC" fill-opacity="1.000000" fill-rule="nonzero"/>
	</g>
	<g mask="url(#mask9_1145)">
		<circle id="Ellipse 31" cx="18.344849" cy="18.344849" r="17.034479" stroke="#FFFFFF" stroke-opacity="1.000000" stroke-width="2.620689"/>
	</g>
</svg>
