<svg width="20.000000" height="20.000000" viewBox="0 0 20 20" fill="none" xmlns="http://www.w3.org/2000/svg" xmlns:xlink="http://www.w3.org/1999/xlink">
	<desc>
			Created with Pixso.
	</desc>
	<defs>
		<clipPath id="clip9_793">
			<rect id="ri:behance-fill" rx="0.000000" width="19.000000" height="19.000000" transform="translate(0.500000 0.500000)" fill="white" fill-opacity="0"/>
		</clipPath>
	</defs>
	<rect id="ri:behance-fill" rx="0.000000" width="19.000000" height="19.000000" transform="translate(0.500000 0.500000)" fill="#FFFFFF" fill-opacity="0"/>
	<g clip-path="url(#clip9_793)">
		<path id="Vector" d="M6.2 4.45C6.73 4.45 7.22 4.5 7.67 4.62C8.12 4.7 8.49 4.87 8.82 5.07C9.15 5.28 9.39 5.57 9.56 5.94C9.72 6.31 9.8 6.76 9.8 7.26C9.8 7.83 9.68 8.33 9.39 8.7C9.15 9.07 8.74 9.4 8.25 9.65C8.94 9.85 9.48 10.22 9.8 10.72C10.13 11.21 10.34 11.83 10.34 12.53C10.34 13.11 10.21 13.61 10.01 14.02C9.8 14.43 9.48 14.8 9.11 15.05C8.71 15.31 8.26 15.51 7.8 15.63C7.3 15.75 6.81 15.83 6.32 15.83L0.83 15.83L0.83 4.45L6.2 4.45ZM5.87 9.07C6.32 9.07 6.69 8.95 6.98 8.74C7.26 8.54 7.39 8.16 7.39 7.71C7.39 7.46 7.34 7.22 7.26 7.05C7.18 6.89 7.06 6.76 6.89 6.64C6.73 6.54 6.55 6.48 6.36 6.43C6.16 6.39 5.95 6.39 5.71 6.39L3.33 6.39L3.33 9.07L5.87 9.07ZM5.99 13.93C6.24 13.93 6.48 13.89 6.69 13.85C6.89 13.81 7.1 13.73 7.26 13.61C7.43 13.48 7.57 13.33 7.67 13.15C7.75 12.95 7.84 12.7 7.84 12.41C7.84 11.83 7.67 11.42 7.35 11.13C7.02 10.88 6.57 10.76 6.03 10.76L3.33 10.76L3.33 13.94L5.99 13.93ZM13.9 13.89C14.23 14.22 14.72 14.39 15.38 14.39C15.83 14.39 16.24 14.27 16.57 14.06C16.89 13.81 17.1 13.56 17.18 13.32L19.19 13.32C18.86 14.31 18.37 15.01 17.71 15.46C17.06 15.87 16.28 16.12 15.34 16.12C14.73 16.12 14.14 16.01 13.57 15.79C13.07 15.6 12.62 15.29 12.26 14.88C11.88 14.5 11.6 14.04 11.44 13.52C11.24 12.99 11.16 12.41 11.16 11.75C11.16 11.13 11.24 10.56 11.44 10.02C11.64 9.5 11.93 9.03 12.3 8.62C12.67 8.25 13.12 7.92 13.62 7.71C14.16 7.49 14.75 7.38 15.34 7.38C16.03 7.38 16.65 7.5 17.18 7.79C17.71 8.08 18.12 8.41 18.45 8.91C18.78 9.36 19.03 9.9 19.19 10.47C19.27 11.05 19.31 11.63 19.27 12.29L13.33 12.29C13.33 12.95 13.57 13.56 13.9 13.89L13.9 13.89ZM16.48 9.57C16.2 9.28 15.75 9.11 15.21 9.11C14.9 9.11 14.59 9.18 14.31 9.32C14.07 9.44 13.9 9.61 13.74 9.77C13.59 9.93 13.49 10.13 13.45 10.35C13.41 10.56 13.37 10.72 13.37 10.89L17.06 10.89C16.98 10.27 16.77 9.86 16.48 9.57ZM12.88 5.24L17.47 5.24L17.47 6.35L12.88 6.35L12.88 5.24Z" fill="#FFFFFF" fill-opacity="1.000000" fill-rule="nonzero"/>
	</g>
</svg>
