<svg width="20.000000" height="20.000000" viewBox="0 0 20 20" fill="none" xmlns="http://www.w3.org/2000/svg" xmlns:xlink="http://www.w3.org/1999/xlink">
	<desc>
			Created with Pixso.
	</desc>
	<defs>
		<clipPath id="clip9_797">
			<rect id="mingcute:dribbble-fill" rx="0.000000" width="19.000000" height="19.000000" transform="translate(0.500000 0.500000)" fill="white" fill-opacity="0"/>
		</clipPath>
	</defs>
	<rect id="mingcute:dribbble-fill" rx="0.000000" width="19.000000" height="19.000000" transform="translate(0.500000 0.500000)" fill="#FFFFFF" fill-opacity="0"/>
	<g clip-path="url(#clip9_797)">
		<path id="Vector" d="M11.47 12.03C12.11 13.92 12.54 15.88 12.75 17.86C11.87 18.17 10.93 18.33 10 18.33C8.34 18.33 6.73 17.84 5.36 16.92C5.99 15.73 6.87 14.69 7.92 13.85C8.97 13.01 10.18 12.39 11.47 12.03L11.47 12.03ZM17.97 12.41C17.38 14.37 16.09 16.04 14.34 17.1C14.11 15.27 13.7 13.47 13.13 11.71C14.77 11.54 16.44 11.78 17.97 12.41ZM10.12 8.73C10.39 9.3 10.65 9.87 10.89 10.46C8 11.31 5.56 13.23 4.05 15.84C3.21 14.97 2.56 13.93 2.15 12.79C1.75 11.65 1.59 10.44 1.7 9.23C4.48 9.82 7.42 9.65 10.12 8.73ZM16.43 4.7C17.82 6.39 18.49 8.57 18.29 10.75C16.46 10.06 14.49 9.84 12.54 10.11C12.28 9.43 11.98 8.76 11.67 8.11C13.45 7.28 15.07 6.12 16.43 4.7ZM6.05 2.65C7.3 4.07 8.39 5.6 9.32 7.24C6.96 7.99 4.44 8.12 2.01 7.6C2.65 5.48 4.1 3.7 6.05 2.65ZM10 1.66C11.99 1.66 13.81 2.36 15.25 3.52C14.01 4.82 12.53 5.88 10.9 6.63C9.98 4.98 8.9 3.43 7.68 1.99C8.43 1.77 9.21 1.66 10 1.66Z" fill="#FFFFFF" fill-opacity="1.000000" fill-rule="nonzero"/>
	</g>
</svg>
