<svg width="20.000000" height="20.000000" viewBox="0 0 20 20" fill="none" xmlns="http://www.w3.org/2000/svg" xmlns:xlink="http://www.w3.org/1999/xlink">
	<desc>
			Created with Pixso.
	</desc>
	<defs>
		<clipPath id="clip9_803">
			<rect id="ri:linkedin-fill" rx="0.000000" width="19.000000" height="19.000000" transform="translate(0.500000 0.500000)" fill="white" fill-opacity="0"/>
		</clipPath>
	</defs>
	<rect id="ri:linkedin-fill" rx="0.000000" width="19.000000" height="19.000000" transform="translate(0.500000 0.500000)" fill="#FFFFFF" fill-opacity="0"/>
	<g clip-path="url(#clip9_803)">
		<path id="Vector" d="M5.78 4.16C5.78 4.6 5.6 5.03 5.29 5.34C4.98 5.65 4.55 5.83 4.11 5.83C3.67 5.83 3.24 5.65 2.93 5.34C2.62 5.03 2.44 4.6 2.44 4.16C2.45 3.72 2.62 3.29 2.93 2.98C3.25 2.67 3.67 2.49 4.11 2.49C4.55 2.49 4.98 2.67 5.29 2.98C5.6 3.3 5.78 3.72 5.78 4.16ZM5.83 7.06L2.5 7.06L2.5 17.5L5.83 17.5L5.83 7.06ZM11.1 7.06L7.78 7.06L7.78 17.5L11.06 17.5L11.06 12.02C11.06 8.97 15.04 8.69 15.04 12.02L15.04 17.5L18.33 17.5L18.33 10.89C18.33 5.75 12.45 5.94 11.06 8.46L11.1 7.06Z" fill="#FFFFFF" fill-opacity="1.000000" fill-rule="nonzero"/>
	</g>
</svg>
