<svg width="24.000000" height="21.254395" viewBox="0 0 24 21.2544" fill="none" xmlns="http://www.w3.org/2000/svg" xmlns:xlink="http://www.w3.org/1999/xlink">
	<desc>
			Created with Pixso.
	</desc>
	<defs/>
	<path id="Vector" d="M6.81 8.72C6.46 8.37 5.9 8.37 5.56 8.71C5.21 9.06 5.21 9.62 5.55 9.96L9.74 14.18C9.91 14.35 10.13 14.44 10.36 14.44C10.36 14.44 10.36 14.44 10.37 14.44C10.6 14.44 10.82 14.35 10.99 14.18L23.74 1.51C24.08 1.16 24.08 0.6 23.74 0.26C23.4 -0.09 22.84 -0.09 22.49 0.25L17.98 4.73C16.07 2.37 13.18 0.99 10.12 0.99C8.69 0.99 7.31 1.28 6.01 1.85C4.76 2.41 3.65 3.2 2.71 4.21C1.78 5.22 1.07 6.38 0.6 7.66C0.11 9 -0.08 10.41 0.02 11.85C0.37 16.84 4.39 20.87 9.38 21.23C9.63 21.24 9.88 21.25 10.12 21.25C12.44 21.25 14.68 20.46 16.48 19C18.46 17.42 19.75 15.17 20.14 12.67C20.22 12.16 20.25 11.64 20.25 11.12C20.25 10.63 19.86 10.23 19.37 10.23C18.89 10.23 18.49 10.63 18.49 11.12C18.49 11.55 18.46 11.98 18.39 12.41C17.73 16.67 13.83 19.77 9.51 19.46C5.39 19.17 2.07 15.84 1.78 11.72C1.62 9.37 2.4 7.13 4 5.41C5.58 3.72 7.81 2.75 10.12 2.75C12.71 2.75 15.14 3.95 16.72 5.98L10.37 12.31L6.81 8.72Z" fill="#FFFFFF" fill-opacity="1.000000" fill-rule="nonzero"/>
</svg>
