<svg width="214.000000" height="48.000000" viewBox="0 0 214 48" fill="none" xmlns="http://www.w3.org/2000/svg" xmlns:xlink="http://www.w3.org/1999/xlink">
	<desc>
			Created with Pixso.
	</desc>
	<defs/>
	<path id="AltCreative" d="M176.37 13.16L180.3 13.16L180.3 9.62L176.37 9.62L176.37 13.16ZM94.45 22.65L94.45 17.48L99.18 17.48L99.18 14.15L94.45 14.15L94.45 9.94L90.47 9.94L90.47 14.15L88.54 14.15L88.54 17.48L90.47 17.48L90.47 23.33C90.47 25.43 90.47 28.68 94.45 28.68C98.4 28.68 99.18 28.42 99.18 28.42L99.18 24.57C98.81 24.59 98.46 24.62 98.14 24.64C95.21 24.82 94.45 24.86 94.45 22.96L94.45 22.65ZM170.57 22.65L170.57 17.48L175.3 17.48L175.3 14.15L170.57 14.15L170.57 9.94L166.59 9.94L166.59 14.15L164.67 14.15L164.67 17.48L166.59 17.48L166.59 23.33C166.59 25.43 166.59 28.68 170.57 28.68C174.52 28.68 175.3 28.42 175.3 28.42L175.3 24.57C174.93 24.59 174.58 24.62 174.27 24.64C171.33 24.82 170.57 24.86 170.57 22.96L170.57 22.65ZM83.77 28.68L87.7 28.68L87.7 9.99L83.77 9.99L83.77 28.68ZM118.75 21.77L114.65 21.77C114.15 23.56 112.83 24.65 109.78 24.65C106.66 24.65 104.51 23.07 104.51 19.45C104.51 15.84 106.66 14.23 109.78 14.23C112.72 14.23 114.07 15.16 114.65 17.14L118.75 17.14C118.49 13.24 114.85 10.2 109.78 10.2C104.56 10.2 100.58 13.47 100.58 19.45C100.58 25.54 104.56 28.68 109.78 28.68C114.85 28.68 118.39 25.82 118.75 21.77ZM82.33 28.68L75.83 10.51L69.2 10.51L62.7 28.68L66.78 28.68L67.87 25.69L77.15 25.69L78.22 28.68L82.33 28.68ZM134.67 22.31L146.47 22.31C146.68 20.31 146.42 17.24 143.61 15.32L143.61 15.34C142.39 14.49 140.73 13.97 138.67 13.97C133.76 13.97 130.85 16.57 130.85 21.32C130.85 26.19 133.68 28.68 138.67 28.68C143.46 28.68 146 26.76 146.39 23.61L142.57 23.61C142.21 24.57 141.04 25.22 138.67 25.22C136.12 25.22 134.95 24.26 134.67 22.31ZM200.76 22.31L212.56 22.31C212.77 20.31 212.51 17.24 209.7 15.32L209.7 15.34C208.48 14.49 206.82 13.97 204.76 13.97C199.85 13.97 196.94 16.57 196.94 21.32C196.94 26.19 199.77 28.68 204.76 28.68C209.55 28.68 212.1 26.76 212.49 23.61L208.66 23.61C208.3 24.57 207.13 25.22 204.76 25.22C202.22 25.22 201.05 24.26 200.76 22.31ZM75.85 22.08L69.15 22.08L72.01 14.1L73.02 14.1L75.85 22.08ZM131.18 14.49C130.5 14.33 129.64 14.1 128.61 14.1C126.08 14.1 125.2 14.85 124.37 16.25L124.13 16.25L124.13 14.1L120.18 14.1L120.18 28.68L124.13 28.68L124.13 22.16C124.13 20.18 124.99 17.89 127.93 17.89C129.18 17.89 130.19 18.1 130.56 18.2L131.18 14.49ZM159.77 16.25L159.59 16.25C158.6 14.95 156.97 14.1 154.26 14.1C148.1 14.1 147.45 19.27 147.45 21.4C147.45 23.35 148.13 28.68 154.24 28.68C156.99 28.68 158.66 27.93 159.64 26.65L159.77 26.65L159.77 28.68L163.73 28.68L163.73 14.1L159.77 14.1L159.77 16.25ZM176.37 28.68L180.3 28.68L180.3 14.2L176.37 14.2L176.37 28.68ZM197.82 14.2L193.64 14.2L189.37 25.17L188.98 25.17L184.72 14.2L180.56 14.2L186.18 28.68L192.21 28.68L197.82 14.2ZM134.82 19.71C135.29 18.23 136.49 17.42 138.67 17.42C141.48 17.42 142.21 18.62 142.52 19.71L134.82 19.71ZM200.92 19.71C201.38 18.23 202.58 17.42 204.76 17.42C207.57 17.42 208.3 18.62 208.61 19.71L200.92 19.71ZM159.51 21.4C159.51 23.61 158.81 25.3 155.41 25.3C151.64 25.3 151.22 22.44 151.22 21.4C151.22 20.26 151.61 17.5 155.41 17.5C158.81 17.5 159.51 19.43 159.51 21.4Z" fill="#151515" fill-opacity="1.000000" fill-rule="evenodd"/>
	<path id="Vector 8" d="M47.11 44.31L30.92 13.72C30.55 13.02 29.55 13.01 29.16 13.71L23.07 24.68C22.7 25.35 23.18 26.16 23.94 26.16L31.32 26.16C31.68 26.16 32.02 26.36 32.2 26.69L36.13 33.89C36.5 34.56 36.02 35.37 35.26 35.37L18.34 35.37C17.97 35.37 17.63 35.57 17.46 35.9L11.27 47.47C11.1 47.79 10.76 48 10.39 48L1.64 48C0.89 48 0.41 47.2 0.76 46.53L24.74 0.53C24.92 0.2 25.26 0 25.63 0L33.81 0C34.19 0 34.53 0.21 34.71 0.54L48.89 28.45C48.96 28.59 49 28.75 49 28.9L49 43.84C49 44.88 47.6 45.23 47.11 44.31Z" fill="#0029FF" fill-opacity="1.000000" fill-rule="evenodd"/>
</svg>
