<svg width="89.348877" height="68.000000" viewBox="0 0 89.3489 68" fill="none" xmlns="http://www.w3.org/2000/svg" xmlns:xlink="http://www.w3.org/1999/xlink">
	<desc>
			Created with Pixso.
	</desc>
	<defs>
		<clipPath id="clip9_1578">
			<rect id="Logo" rx="0.000000" width="88.348831" height="67.000000" transform="translate(0.500000 0.500000)" fill="white" fill-opacity="0"/>
		</clipPath>
	</defs>
	<rect id="Logo" rx="0.000000" width="88.348831" height="67.000000" transform="translate(0.500000 0.500000)" fill="#FFFFFF" fill-opacity="0"/>
	<g clip-path="url(#clip9_1578)">
		<path id="Vector" d="M48.46 0.25C55.37 1.23 61.96 4.31 66.85 8.84C67.53 9.48 68.3 10.11 68.55 10.24C69.27 10.61 68.92 10.67 67.98 10.34C64.98 9.26 59.33 8.78 55.4 9.27C48.34 10.15 42.23 12.23 30.29 17.83C19.11 23.07 17.16 23.7 12.17 23.7C8.2 23.7 5.29 22.99 1.55 21.12C0.69 20.69 0 20.3 0 20.26C0 20.22 0.7 20.43 1.56 20.75C4.32 21.75 7.86 22.13 10.79 21.74L11.74 21.61L13.13 18.89C14.7 15.8 15.59 14.45 17.61 12.04C22.94 5.69 30.76 1.38 38.96 0.25C41.48 -0.09 46.04 -0.09 48.46 0.25ZM41.3 3.97C32.36 4.86 24.65 9.15 19.45 16.13C18.11 17.93 16.88 19.96 17.04 20.11C17.29 20.36 22.39 18.08 29.42 14.58C40.06 9.27 43.12 7.97 46.94 7.14C49.19 6.65 52.67 6.31 54.36 6.4C56.13 6.5 55.84 6.24 53.22 5.41C49.25 4.14 44.89 3.62 41.3 3.97ZM64.72 15.2C67.96 15.76 71.16 17.1 73.84 19.02C75.41 20.14 78.54 22.72 78.44 22.82C78.41 22.85 77.33 22.44 76.05 21.91C71.04 19.85 68.05 19.29 62.77 19.42C57.46 19.56 55.6 20.01 44.39 23.86C31.99 28.11 27.5 29.28 21.33 29.88C15.64 30.43 10.33 29.39 6.29 26.93C5.2 26.26 1.87 23.84 2.05 23.84C2.13 23.84 3.26 24.18 4.56 24.6C11.25 26.76 17.26 26.85 24.84 24.91C27.59 24.2 29.1 23.68 38.38 20.25C46.9 17.1 51.52 15.76 56.01 15.12C57.99 14.84 62.93 14.88 64.72 15.2ZM10.65 29.87C10.95 29.99 11.72 30.19 12.36 30.32L13.52 30.55L13.55 34.04C13.59 37.9 13.95 40.24 15.01 43.48C18.41 53.85 27.45 61.7 38.38 63.77C41.16 64.29 46.94 64.25 49.6 63.68C54.68 62.59 59.3 60.39 63.07 57.26C64.2 56.33 64.24 56.31 65.96 56.17C66.92 56.09 68.32 55.87 69.07 55.68C69.82 55.49 70.47 55.37 70.52 55.41C70.57 55.46 69.38 56.7 67.89 58.17C62.83 63.15 57.49 66.02 50.44 67.56C48.65 67.94 47.87 68 43.74 68C38.5 68 36.96 67.77 32.92 66.43C20.55 62.32 11.54 51.47 9.82 38.6C9.41 35.5 9.49 29.66 9.95 29.66C10.03 29.66 10.35 29.76 10.65 29.87ZM15.58 34.13C15.58 35.48 16.28 38.91 16.98 41C20.34 51.06 29.13 58.89 39.45 61.01C45.29 62.21 52.13 61.61 57 59.47C58.89 58.64 58.38 59.06 56.36 60C54.22 61 51.98 61.71 49.39 62.22C46.74 62.74 41.29 62.69 38.64 62.12C29.41 60.14 22.15 54.52 18.2 46.28C16.65 43.06 15.76 39.99 15.51 37.04C15.18 33.17 15.17 32.93 15.37 33.05C15.49 33.12 15.58 33.61 15.58 34.13Z" fill="#2F2F2F" fill-opacity="1.000000" fill-rule="evenodd"/>
		<path id="Vector" d="M48.75 30.6L48.75 31.93L46.18 31.97L43.6 32.01L43.57 38.65L43.53 45.29L42.04 45.29L40.55 45.29L40.55 38.61L40.55 31.94L38.01 31.94L35.48 31.94L35.48 30.6L35.48 29.26L42.11 29.26L48.75 29.26L48.75 30.6ZM55.16 34.97C56.18 38.12 57.06 40.69 57.11 40.69C57.16 40.69 58.06 38.12 59.12 34.98L61.04 29.27L62.03 29.27L63.02 29.26L63.91 31.82C64.41 33.23 65.3 35.8 65.9 37.54C66.51 39.27 67.04 40.69 67.08 40.69C67.12 40.69 67.96 38.14 68.95 35.02L70.75 29.34L72.42 29.3C73.34 29.27 74.09 29.31 74.09 29.39C74.09 29.46 72.81 33.05 71.25 37.35C69.7 41.66 68.42 45.21 68.42 45.24C68.42 45.27 67.82 45.29 67.09 45.29L65.76 45.29L64.73 42.66C64.16 41.21 63.34 38.97 62.91 37.67C62.48 36.38 62.08 35.38 62.01 35.45C61.95 35.52 61.58 36.56 61.2 37.78C60.81 38.99 60.03 41.18 59.46 42.64L58.41 45.29L57.11 45.29L55.8 45.29L52.92 37.46C51.34 33.16 50.01 29.55 49.97 29.45C49.92 29.31 50.31 29.26 51.6 29.26L53.3 29.26L55.16 34.97ZM85.28 37.2C87.23 41.53 88.83 45.12 88.83 45.18C88.84 45.24 88.11 45.29 87.23 45.29L85.61 45.29L84.95 43.81L84.3 42.33L80.03 42.33L75.77 42.32L75.11 43.81L74.46 45.29L72.84 45.29C71.37 45.29 71.23 45.27 71.29 45.03C71.37 44.76 78.18 29.65 78.34 29.4C78.39 29.32 79.12 29.27 80.08 29.3L81.73 29.34L85.28 37.2ZM78.6 35.84C77.85 37.57 77.19 39.1 77.13 39.25C77.04 39.49 77.24 39.5 80.05 39.5C82.4 39.5 83.04 39.46 82.98 39.32C82.3 37.69 80.15 32.87 80.07 32.8C80.02 32.75 79.36 34.12 78.6 35.84Z" fill="#2F2F2F" fill-opacity="1.000000" fill-rule="evenodd"/>
		<path id="Vector" d="M41.09 48.94C40.93 48.94 40.79 48.91 40.67 48.86C40.54 48.81 40.44 48.73 40.37 48.63C40.3 48.53 40.27 48.41 40.27 48.28L40.67 48.28C40.68 48.38 40.72 48.46 40.79 48.53C40.86 48.59 40.96 48.62 41.09 48.62C41.22 48.62 41.32 48.59 41.4 48.53C41.47 48.46 41.51 48.38 41.51 48.28C41.51 48.21 41.48 48.14 41.44 48.09C41.39 48.04 41.33 48.01 41.26 47.98C41.2 47.95 41.1 47.92 40.98 47.89C40.83 47.85 40.71 47.81 40.61 47.77C40.52 47.73 40.44 47.67 40.37 47.58C40.31 47.49 40.27 47.38 40.27 47.24C40.27 47.1 40.31 46.99 40.37 46.89C40.44 46.79 40.53 46.71 40.65 46.66C40.77 46.6 40.91 46.58 41.07 46.58C41.3 46.58 41.48 46.63 41.62 46.75C41.77 46.86 41.85 47.01 41.86 47.21L41.44 47.21C41.44 47.12 41.4 47.05 41.32 46.99C41.25 46.93 41.15 46.9 41.03 46.9C40.92 46.9 40.83 46.93 40.76 46.98C40.69 47.04 40.66 47.12 40.66 47.22C40.66 47.29 40.68 47.35 40.72 47.4C40.77 47.44 40.82 47.48 40.89 47.5C40.96 47.53 41.05 47.56 41.16 47.59C41.32 47.63 41.44 47.68 41.54 47.72C41.64 47.76 41.72 47.83 41.79 47.91C41.85 48 41.89 48.12 41.89 48.26C41.89 48.38 41.86 48.49 41.79 48.6C41.73 48.7 41.64 48.78 41.52 48.85C41.4 48.91 41.25 48.94 41.09 48.94ZM48.09 48.94C47.88 48.94 47.68 48.89 47.49 48.79C47.31 48.69 47.17 48.55 47.06 48.37C46.96 48.19 46.91 47.98 46.91 47.76C46.91 47.53 46.96 47.33 47.06 47.15C47.17 46.97 47.31 46.83 47.49 46.73C47.68 46.63 47.88 46.58 48.09 46.58C48.31 46.58 48.51 46.63 48.69 46.73C48.87 46.83 49.02 46.97 49.12 47.15C49.22 47.33 49.28 47.53 49.28 47.76C49.28 47.98 49.22 48.19 49.12 48.37C49.02 48.55 48.87 48.69 48.69 48.79C48.51 48.89 48.31 48.94 48.09 48.94ZM48.09 48.61C48.24 48.61 48.38 48.58 48.5 48.51C48.62 48.44 48.72 48.34 48.78 48.21C48.85 48.08 48.89 47.93 48.89 47.76C48.89 47.59 48.85 47.44 48.78 47.31C48.72 47.18 48.62 47.08 48.5 47.01C48.38 46.94 48.24 46.91 48.09 46.91C47.94 46.91 47.8 46.94 47.68 47.01C47.56 47.08 47.47 47.18 47.4 47.31C47.33 47.44 47.3 47.59 47.3 47.76C47.3 47.93 47.33 48.08 47.4 48.21C47.47 48.34 47.56 48.44 47.68 48.51C47.8 48.58 47.94 48.61 48.09 48.61ZM54.73 48.61L55.51 48.61L55.51 48.92L54.35 48.92L54.35 46.61L54.73 46.61L54.73 48.61ZM60.9 46.61L60.9 48.08C60.9 48.26 60.95 48.39 61.04 48.48C61.13 48.56 61.26 48.61 61.43 48.61C61.59 48.61 61.72 48.56 61.81 48.48C61.91 48.39 61.95 48.26 61.95 48.08L61.95 46.61L62.33 46.61L62.33 48.07C62.33 48.26 62.29 48.42 62.21 48.55C62.13 48.68 62.02 48.78 61.88 48.85C61.74 48.91 61.59 48.94 61.42 48.94C61.25 48.94 61.1 48.91 60.96 48.85C60.83 48.78 60.72 48.68 60.64 48.55C60.56 48.42 60.52 48.26 60.52 48.07L60.52 46.61L60.9 46.61ZM69.02 46.61L69.02 46.92L68.41 46.92L68.41 48.92L68.02 48.92L68.02 46.92L67.4 46.92L67.4 46.61L69.02 46.61ZM74.48 46.61L74.48 48.92L74.1 48.92L74.1 46.61L74.48 46.61ZM80.74 48.94C80.52 48.94 80.32 48.89 80.14 48.79C79.96 48.69 79.81 48.55 79.71 48.37C79.6 48.19 79.55 47.98 79.55 47.76C79.55 47.53 79.6 47.33 79.71 47.15C79.81 46.97 79.96 46.83 80.14 46.73C80.32 46.63 80.52 46.58 80.74 46.58C80.95 46.58 81.15 46.63 81.33 46.73C81.52 46.83 81.66 46.97 81.76 47.15C81.87 47.33 81.92 47.53 81.92 47.76C81.92 47.98 81.87 48.19 81.76 48.37C81.66 48.55 81.52 48.69 81.33 48.79C81.15 48.89 80.95 48.94 80.74 48.94ZM80.74 48.61C80.89 48.61 81.03 48.58 81.15 48.51C81.27 48.44 81.36 48.34 81.43 48.21C81.5 48.08 81.53 47.93 81.53 47.76C81.53 47.59 81.5 47.44 81.43 47.31C81.36 47.18 81.27 47.08 81.15 47.01C81.03 46.94 80.89 46.91 80.74 46.91C80.58 46.91 80.44 46.94 80.32 47.01C80.2 47.08 80.11 47.18 80.04 47.31C79.97 47.44 79.94 47.59 79.94 47.76C79.94 47.93 79.97 48.08 80.04 48.21C80.11 48.34 80.2 48.44 80.32 48.51C80.44 48.58 80.58 48.61 80.74 48.61ZM88.9 48.92L88.52 48.92L87.37 47.19L87.37 48.92L86.99 48.92L86.99 46.6L87.37 46.6L88.52 48.33L88.52 46.6L88.9 46.6L88.9 48.92Z" fill="#2F2F2F" fill-opacity="1.000000" fill-rule="nonzero"/>
		<path id="Vector" d="M40.67 48.86L40.65 48.9L40.65 48.9L40.67 48.86ZM40.27 48.28L40.27 48.24L40.23 48.24L40.23 48.28L40.27 48.28ZM40.67 48.28L40.71 48.28L40.71 48.24L40.67 48.24L40.67 48.28ZM40.79 48.53L40.76 48.55L40.76 48.56L40.79 48.53ZM41.4 48.53L41.42 48.56L41.42 48.56L41.4 48.53ZM41.44 48.09L41.41 48.12L41.41 48.12L41.44 48.09ZM41.26 47.98L41.25 48.02L41.25 48.02L41.26 47.98ZM40.98 47.89L40.97 47.93L40.97 47.93L40.98 47.89ZM40.61 47.77L40.6 47.81L40.6 47.81L40.61 47.77ZM41.62 46.75L41.6 46.78L41.6 46.78L41.62 46.75ZM41.86 47.21L41.86 47.25L41.91 47.25L41.9 47.2L41.86 47.21ZM41.44 47.21L41.4 47.21L41.41 47.25L41.44 47.25L41.44 47.21ZM40.72 47.4L40.69 47.43L40.69 47.43L40.7 47.43L40.72 47.4ZM41.16 47.59L41.18 47.55L41.17 47.55L41.16 47.59ZM41.54 47.72L41.52 47.75L41.52 47.75L41.54 47.72ZM41.79 47.91L41.75 47.94L41.75 47.94L41.79 47.91ZM41.79 48.6L41.76 48.58L41.76 48.58L41.79 48.6ZM41.52 48.85L41.53 48.88L41.53 48.88L41.52 48.85ZM41.09 48.9C40.94 48.9 40.8 48.88 40.68 48.83L40.65 48.9C40.78 48.95 40.93 48.98 41.09 48.98L41.09 48.9ZM40.68 48.83C40.56 48.77 40.47 48.7 40.41 48.61L40.34 48.65C40.42 48.76 40.52 48.84 40.65 48.9L40.68 48.83ZM40.41 48.61C40.34 48.51 40.31 48.41 40.31 48.28L40.23 48.28C40.23 48.42 40.26 48.54 40.34 48.65L40.41 48.61ZM40.27 48.32L40.67 48.32L40.67 48.24L40.27 48.24L40.27 48.32ZM40.63 48.28C40.64 48.39 40.69 48.48 40.76 48.55L40.82 48.5C40.76 48.44 40.72 48.37 40.71 48.28L40.63 48.28ZM40.76 48.56C40.84 48.63 40.95 48.66 41.09 48.66L41.09 48.58C40.97 48.58 40.88 48.55 40.82 48.5L40.76 48.56ZM41.09 48.66C41.23 48.66 41.34 48.63 41.42 48.56L41.37 48.5C41.31 48.55 41.21 48.58 41.09 48.58L41.09 48.66ZM41.42 48.56C41.5 48.49 41.54 48.39 41.54 48.28L41.47 48.28C41.47 48.37 41.43 48.44 41.37 48.5L41.42 48.56ZM41.54 48.28C41.54 48.2 41.52 48.12 41.46 48.07L41.41 48.12C41.45 48.16 41.47 48.21 41.47 48.28L41.54 48.28ZM41.46 48.07C41.42 48.01 41.35 47.97 41.28 47.94L41.25 48.02C41.31 48.04 41.37 48.08 41.41 48.12L41.46 48.07ZM41.28 47.94C41.21 47.92 41.12 47.89 40.99 47.86L40.97 47.93C41.09 47.96 41.19 47.99 41.25 48.02L41.28 47.94ZM40.99 47.86C40.84 47.82 40.72 47.78 40.63 47.74L40.6 47.81C40.7 47.85 40.82 47.89 40.97 47.93L40.99 47.86ZM40.63 47.74C40.54 47.7 40.47 47.64 40.4 47.56L40.34 47.61C40.41 47.7 40.5 47.77 40.6 47.81L40.63 47.74ZM40.4 47.56C40.34 47.48 40.31 47.37 40.31 47.24L40.23 47.24C40.23 47.39 40.27 47.51 40.34 47.61L40.4 47.56ZM40.31 47.24C40.31 47.11 40.34 47 40.41 46.91L40.34 46.86C40.27 46.97 40.23 47.1 40.23 47.24L40.31 47.24ZM40.41 46.91C40.47 46.82 40.56 46.74 40.67 46.69L40.64 46.62C40.51 46.68 40.41 46.76 40.34 46.86L40.41 46.91ZM40.67 46.69C40.78 46.64 40.92 46.62 41.07 46.62L41.07 46.54C40.91 46.54 40.76 46.57 40.64 46.62L40.67 46.69ZM41.07 46.62C41.29 46.62 41.46 46.67 41.6 46.78L41.65 46.72C41.5 46.6 41.3 46.54 41.07 46.54L41.07 46.62ZM41.6 46.78C41.73 46.88 41.81 47.02 41.82 47.21L41.9 47.2C41.89 47 41.8 46.83 41.65 46.72L41.6 46.78ZM41.86 47.17L41.44 47.17L41.44 47.25L41.86 47.25L41.86 47.17ZM41.48 47.2C41.47 47.11 41.43 47.02 41.35 46.96L41.3 47.02C41.36 47.07 41.4 47.14 41.4 47.21L41.48 47.2ZM41.35 46.96C41.26 46.89 41.16 46.86 41.03 46.86L41.03 46.94C41.14 46.94 41.23 46.97 41.3 47.02L41.35 46.96ZM41.03 46.86C40.91 46.86 40.82 46.89 40.74 46.95L40.79 47.01C40.85 46.97 40.93 46.94 41.03 46.94L41.03 46.86ZM40.74 46.95C40.66 47.02 40.62 47.11 40.62 47.22L40.7 47.22C40.7 47.13 40.73 47.06 40.79 47.01L40.74 46.95ZM40.62 47.22C40.62 47.3 40.64 47.37 40.69 47.43L40.75 47.37C40.72 47.33 40.7 47.28 40.7 47.22L40.62 47.22ZM40.7 47.43C40.74 47.48 40.8 47.51 40.88 47.54L40.91 47.47C40.84 47.44 40.79 47.41 40.75 47.37L40.7 47.43ZM40.88 47.54C40.94 47.57 41.04 47.6 41.15 47.63L41.17 47.55C41.06 47.52 40.97 47.49 40.91 47.47L40.88 47.54ZM41.15 47.63C41.31 47.67 41.43 47.71 41.52 47.75L41.55 47.68C41.46 47.64 41.33 47.6 41.18 47.55L41.15 47.63ZM41.52 47.75C41.61 47.79 41.69 47.85 41.75 47.94L41.82 47.89C41.75 47.8 41.66 47.73 41.55 47.68L41.52 47.75ZM41.75 47.94C41.82 48.02 41.85 48.12 41.85 48.26L41.93 48.26C41.93 48.11 41.89 47.99 41.82 47.89L41.75 47.94ZM41.85 48.26C41.85 48.37 41.82 48.48 41.76 48.58L41.83 48.62C41.89 48.51 41.93 48.39 41.93 48.26L41.85 48.26ZM41.76 48.58C41.7 48.67 41.61 48.75 41.5 48.81L41.53 48.88C41.66 48.82 41.76 48.73 41.83 48.62L41.76 48.58ZM41.5 48.81C41.38 48.87 41.25 48.9 41.09 48.9L41.09 48.98C41.26 48.98 41.41 48.95 41.53 48.88L41.5 48.81ZM47.49 48.79L47.47 48.83L47.47 48.83L47.49 48.79ZM47.06 48.37L47.03 48.39L47.03 48.39L47.06 48.37ZM47.06 47.15L47.03 47.13L47.03 47.13L47.06 47.15ZM48.69 46.73L48.67 46.76L48.67 46.76L48.69 46.73ZM49.12 48.37L49.15 48.39L49.15 48.39L49.12 48.37ZM48.69 48.79L48.71 48.83L48.71 48.83L48.69 48.79ZM48.5 48.51L48.52 48.54L48.52 48.54L48.5 48.51ZM48.78 48.21L48.75 48.19L48.75 48.19L48.78 48.21ZM48.78 47.31L48.75 47.33L48.75 47.33L48.78 47.31ZM47.4 47.31L47.36 47.29L47.36 47.29L47.4 47.31ZM47.4 48.21L47.36 48.23L47.36 48.23L47.4 48.21ZM47.68 48.51L47.66 48.54L47.66 48.54L47.68 48.51ZM48.09 48.9C47.88 48.9 47.69 48.85 47.51 48.76L47.47 48.83C47.66 48.93 47.87 48.98 48.09 48.98L48.09 48.9ZM47.51 48.76C47.34 48.66 47.2 48.52 47.1 48.35L47.03 48.39C47.14 48.58 47.29 48.72 47.47 48.83L47.51 48.76ZM47.1 48.35C47 48.17 46.95 47.98 46.95 47.76L46.87 47.76C46.87 47.99 46.92 48.2 47.03 48.39L47.1 48.35ZM46.95 47.76C46.95 47.54 47 47.34 47.1 47.17L47.03 47.13C46.92 47.32 46.87 47.53 46.87 47.76L46.95 47.76ZM47.1 47.17C47.2 47 47.34 46.86 47.51 46.76L47.47 46.7C47.29 46.8 47.14 46.94 47.03 47.13L47.1 47.17ZM47.51 46.76C47.69 46.67 47.88 46.62 48.09 46.62L48.09 46.54C47.87 46.54 47.66 46.59 47.47 46.7L47.51 46.76ZM48.09 46.62C48.3 46.62 48.5 46.67 48.67 46.76L48.71 46.7C48.52 46.59 48.32 46.54 48.09 46.54L48.09 46.62ZM48.67 46.76C48.85 46.86 48.98 47 49.09 47.17L49.15 47.13C49.05 46.94 48.9 46.8 48.71 46.7L48.67 46.76ZM49.09 47.17C49.19 47.34 49.24 47.54 49.24 47.76L49.32 47.76C49.32 47.53 49.26 47.32 49.15 47.13L49.09 47.17ZM49.24 47.76C49.24 47.98 49.19 48.17 49.09 48.35L49.15 48.39C49.26 48.2 49.32 47.99 49.32 47.76L49.24 47.76ZM49.09 48.35C48.98 48.52 48.85 48.66 48.67 48.76L48.71 48.83C48.9 48.72 49.05 48.58 49.15 48.39L49.09 48.35ZM48.67 48.76C48.5 48.85 48.3 48.9 48.09 48.9L48.09 48.98C48.32 48.98 48.52 48.93 48.71 48.83L48.67 48.76ZM48.09 48.65C48.25 48.65 48.4 48.62 48.52 48.54L48.48 48.48C48.37 48.54 48.24 48.57 48.09 48.57L48.09 48.65ZM48.52 48.54C48.65 48.47 48.75 48.36 48.82 48.23L48.75 48.19C48.68 48.31 48.6 48.41 48.48 48.48L48.52 48.54ZM48.82 48.23C48.89 48.09 48.93 47.93 48.93 47.76L48.85 47.76C48.85 47.92 48.81 48.07 48.75 48.19L48.82 48.23ZM48.93 47.76C48.93 47.58 48.89 47.43 48.82 47.29L48.75 47.33C48.81 47.45 48.85 47.59 48.85 47.76L48.93 47.76ZM48.82 47.29C48.75 47.16 48.65 47.05 48.52 46.98L48.48 47.05C48.6 47.11 48.68 47.2 48.75 47.33L48.82 47.29ZM48.52 46.98C48.4 46.91 48.25 46.87 48.09 46.87L48.09 46.95C48.24 46.95 48.37 46.98 48.48 47.05L48.52 46.98ZM48.09 46.87C47.93 46.87 47.79 46.91 47.66 46.98L47.7 47.05C47.81 46.98 47.94 46.95 48.09 46.95L48.09 46.87ZM47.66 46.98C47.53 47.05 47.43 47.16 47.36 47.29L47.43 47.33C47.5 47.21 47.59 47.11 47.7 47.05L47.66 46.98ZM47.36 47.29C47.29 47.43 47.26 47.58 47.26 47.76L47.34 47.76C47.34 47.59 47.37 47.45 47.43 47.33L47.36 47.29ZM47.26 47.76C47.26 47.93 47.29 48.09 47.36 48.23L47.43 48.19C47.37 48.07 47.34 47.92 47.34 47.76L47.26 47.76ZM47.36 48.23C47.43 48.36 47.53 48.47 47.66 48.54L47.7 48.48C47.59 48.41 47.5 48.31 47.43 48.19L47.36 48.23ZM47.66 48.54C47.79 48.62 47.93 48.65 48.09 48.65L48.09 48.57C47.94 48.57 47.81 48.54 47.7 48.48L47.66 48.54ZM54.73 48.61L54.69 48.61L54.69 48.65L54.73 48.65L54.73 48.61ZM55.51 48.61L55.55 48.61L55.55 48.57L55.51 48.57L55.51 48.61ZM55.51 48.92L55.51 48.96L55.55 48.96L55.55 48.92L55.51 48.92ZM54.35 48.92L54.31 48.92L54.31 48.96L54.35 48.96L54.35 48.92ZM54.35 46.61L54.35 46.57L54.31 46.57L54.31 46.61L54.35 46.61ZM54.73 46.61L54.77 46.61L54.77 46.57L54.73 46.57L54.73 46.61ZM54.73 48.65L55.51 48.65L55.51 48.57L54.73 48.57L54.73 48.65ZM55.47 48.61L55.47 48.92L55.55 48.92L55.55 48.61L55.47 48.61ZM55.51 48.88L54.35 48.88L54.35 48.96L55.51 48.96L55.51 48.88ZM54.39 48.92L54.39 46.61L54.31 46.61L54.31 48.92L54.39 48.92ZM54.35 46.65L54.73 46.65L54.73 46.57L54.35 46.57L54.35 46.65ZM54.69 46.61L54.69 48.61L54.77 48.61L54.77 46.61L54.69 46.61ZM60.9 46.61L60.94 46.61L60.94 46.57L60.9 46.57L60.9 46.61ZM61.04 48.48L61.01 48.5L61.01 48.5L61.04 48.48ZM61.81 48.48L61.79 48.45L61.79 48.45L61.81 48.48ZM61.95 46.61L61.95 46.57L61.91 46.57L61.91 46.61L61.95 46.61ZM62.33 46.61L62.37 46.61L62.37 46.57L62.33 46.57L62.33 46.61ZM60.96 48.85L60.95 48.88L60.95 48.88L60.96 48.85ZM60.52 46.61L60.52 46.57L60.48 46.57L60.48 46.61L60.52 46.61ZM60.86 46.61L60.86 48.08L60.94 48.08L60.94 46.61L60.86 46.61ZM60.86 48.08C60.86 48.26 60.91 48.41 61.01 48.5L61.07 48.45C60.98 48.37 60.94 48.25 60.94 48.08L60.86 48.08ZM61.01 48.5C61.11 48.6 61.25 48.65 61.43 48.65L61.43 48.57C61.27 48.57 61.15 48.53 61.07 48.45L61.01 48.5ZM61.43 48.65C61.6 48.65 61.74 48.6 61.84 48.5L61.79 48.45C61.7 48.53 61.59 48.57 61.43 48.57L61.43 48.65ZM61.84 48.5C61.94 48.41 61.99 48.26 61.99 48.08L61.91 48.08C61.91 48.25 61.87 48.37 61.79 48.45L61.84 48.5ZM61.99 48.08L61.99 46.61L61.91 46.61L61.91 48.08L61.99 48.08ZM61.95 46.65L62.33 46.65L62.33 46.57L61.95 46.57L61.95 46.65ZM62.29 46.61L62.29 48.07L62.37 48.07L62.37 46.61L62.29 46.61ZM62.29 48.07C62.29 48.26 62.25 48.41 62.18 48.53L62.24 48.57C62.33 48.44 62.37 48.27 62.37 48.07L62.29 48.07ZM62.18 48.53C62.1 48.66 61.99 48.75 61.86 48.81L61.9 48.88C62.04 48.81 62.16 48.71 62.24 48.57L62.18 48.53ZM61.86 48.81C61.73 48.87 61.58 48.9 61.42 48.9L61.42 48.98C61.59 48.98 61.75 48.95 61.9 48.88L61.86 48.81ZM61.42 48.9C61.26 48.9 61.11 48.87 60.98 48.81L60.95 48.88C61.09 48.95 61.25 48.98 61.42 48.98L61.42 48.9ZM60.98 48.81C60.85 48.75 60.75 48.66 60.67 48.53L60.61 48.57C60.69 48.71 60.8 48.81 60.95 48.88L60.98 48.81ZM60.67 48.53C60.6 48.41 60.56 48.26 60.56 48.07L60.48 48.07C60.48 48.27 60.52 48.43 60.61 48.57L60.67 48.53ZM60.56 48.07L60.56 46.61L60.48 46.61L60.48 48.07L60.56 48.07ZM60.52 46.65L60.9 46.65L60.9 46.57L60.52 46.57L60.52 46.65ZM69.02 46.61L69.06 46.61L69.06 46.57L69.02 46.57L69.02 46.61ZM69.02 46.92L69.02 46.96L69.06 46.96L69.06 46.92L69.02 46.92ZM68.41 46.92L68.41 46.88L68.37 46.88L68.37 46.92L68.41 46.92ZM68.41 48.92L68.41 48.96L68.44 48.96L68.44 48.92L68.41 48.92ZM68.02 48.92L67.98 48.92L67.98 48.96L68.02 48.96L68.02 48.92ZM68.02 46.92L68.06 46.92L68.06 46.88L68.02 46.88L68.02 46.92ZM67.4 46.92L67.36 46.92L67.36 46.96L67.4 46.96L67.4 46.92ZM67.4 46.61L67.4 46.57L67.36 46.57L67.36 46.61L67.4 46.61ZM68.98 46.61L68.98 46.92L69.06 46.92L69.06 46.61L68.98 46.61ZM69.02 46.88L68.41 46.88L68.41 46.96L69.02 46.96L69.02 46.88ZM68.37 46.92L68.37 48.92L68.44 48.92L68.44 46.92L68.37 46.92ZM68.41 48.88L68.02 48.88L68.02 48.96L68.41 48.96L68.41 48.88ZM68.06 48.92L68.06 46.92L67.98 46.92L67.98 48.92L68.06 48.92ZM68.02 46.88L67.4 46.88L67.4 46.96L68.02 46.96L68.02 46.88ZM67.44 46.92L67.44 46.61L67.36 46.61L67.36 46.92L67.44 46.92ZM67.4 46.65L69.02 46.65L69.02 46.57L67.4 46.57L67.4 46.65ZM74.48 46.61L74.52 46.61L74.52 46.57L74.48 46.57L74.48 46.61ZM74.48 48.92L74.48 48.96L74.52 48.96L74.52 48.92L74.48 48.92ZM74.1 48.92L74.06 48.92L74.06 48.96L74.1 48.96L74.1 48.92ZM74.1 46.61L74.1 46.57L74.06 46.57L74.06 46.61L74.1 46.61ZM74.44 46.61L74.44 48.92L74.52 48.92L74.52 46.61L74.44 46.61ZM74.48 48.88L74.1 48.88L74.1 48.96L74.48 48.96L74.48 48.88ZM74.14 48.92L74.14 46.61L74.06 46.61L74.06 48.92L74.14 48.92ZM74.1 46.65L74.48 46.65L74.48 46.57L74.1 46.57L74.1 46.65ZM80.14 48.79L80.12 48.83L80.12 48.83L80.14 48.79ZM79.71 48.37L79.67 48.39L79.67 48.39L79.71 48.37ZM79.71 47.15L79.67 47.13L79.67 47.13L79.71 47.15ZM81.33 46.73L81.31 46.76L81.31 46.76L81.33 46.73ZM81.76 48.37L81.8 48.39L81.8 48.39L81.76 48.37ZM81.33 48.79L81.35 48.83L81.35 48.83L81.33 48.79ZM81.15 48.51L81.17 48.54L81.17 48.54L81.15 48.51ZM81.43 48.21L81.39 48.19L81.39 48.19L81.43 48.21ZM81.43 47.31L81.39 47.33L81.39 47.33L81.43 47.31ZM80.04 47.31L80.01 47.29L80.01 47.29L80.04 47.31ZM80.04 48.21L80.01 48.23L80.01 48.23L80.04 48.21ZM80.32 48.51L80.3 48.54L80.3 48.54L80.32 48.51ZM80.74 48.9C80.53 48.9 80.33 48.85 80.16 48.76L80.12 48.83C80.31 48.93 80.51 48.98 80.74 48.98L80.74 48.9ZM80.16 48.76C79.98 48.66 79.84 48.52 79.74 48.35L79.67 48.39C79.78 48.58 79.93 48.72 80.12 48.83L80.16 48.76ZM79.74 48.35C79.64 48.17 79.59 47.98 79.59 47.76L79.51 47.76C79.51 47.99 79.56 48.2 79.67 48.39L79.74 48.35ZM79.59 47.76C79.59 47.54 79.64 47.34 79.74 47.17L79.67 47.13C79.56 47.32 79.51 47.53 79.51 47.76L79.59 47.76ZM79.74 47.17C79.84 47 79.98 46.86 80.16 46.76L80.12 46.7C79.93 46.8 79.78 46.94 79.67 47.13L79.74 47.17ZM80.16 46.76C80.33 46.67 80.53 46.62 80.74 46.62L80.74 46.54C80.51 46.54 80.31 46.59 80.12 46.7L80.16 46.76ZM80.74 46.62C80.95 46.62 81.14 46.67 81.31 46.76L81.35 46.7C81.17 46.59 80.96 46.54 80.74 46.54L80.74 46.62ZM81.31 46.76C81.49 46.86 81.63 47 81.73 47.17L81.8 47.13C81.69 46.94 81.54 46.8 81.35 46.7L81.31 46.76ZM81.73 47.17C81.83 47.34 81.88 47.54 81.88 47.76L81.96 47.76C81.96 47.53 81.91 47.32 81.8 47.13L81.73 47.17ZM81.88 47.76C81.88 47.98 81.83 48.17 81.73 48.35L81.8 48.39C81.91 48.2 81.96 47.99 81.96 47.76L81.88 47.76ZM81.73 48.35C81.63 48.52 81.49 48.66 81.31 48.76L81.35 48.83C81.54 48.72 81.69 48.58 81.8 48.39L81.73 48.35ZM81.31 48.76C81.14 48.85 80.95 48.9 80.74 48.9L80.74 48.98C80.96 48.98 81.17 48.93 81.35 48.83L81.31 48.76ZM80.74 48.65C80.9 48.65 81.04 48.62 81.17 48.54L81.13 48.48C81.01 48.54 80.88 48.57 80.74 48.57L80.74 48.65ZM81.17 48.54C81.29 48.47 81.39 48.36 81.46 48.23L81.39 48.19C81.33 48.31 81.24 48.41 81.13 48.48L81.17 48.54ZM81.46 48.23C81.53 48.09 81.57 47.93 81.57 47.76L81.49 47.76C81.49 47.92 81.46 48.07 81.39 48.19L81.46 48.23ZM81.57 47.76C81.57 47.58 81.53 47.43 81.46 47.29L81.39 47.33C81.46 47.45 81.49 47.59 81.49 47.76L81.57 47.76ZM81.46 47.29C81.39 47.16 81.29 47.05 81.17 46.98L81.13 47.05C81.24 47.11 81.33 47.2 81.39 47.33L81.46 47.29ZM81.17 46.98C81.04 46.91 80.9 46.87 80.74 46.87L80.74 46.95C80.88 46.95 81.01 46.98 81.13 47.05L81.17 46.98ZM80.74 46.87C80.58 46.87 80.43 46.91 80.3 46.98L80.34 47.05C80.46 46.98 80.59 46.95 80.74 46.95L80.74 46.87ZM80.3 46.98C80.18 47.05 80.08 47.16 80.01 47.29L80.08 47.33C80.14 47.21 80.23 47.11 80.34 47.05L80.3 46.98ZM80.01 47.29C79.94 47.43 79.9 47.58 79.9 47.76L79.98 47.76C79.98 47.59 80.01 47.45 80.08 47.33L80.01 47.29ZM79.9 47.76C79.9 47.93 79.94 48.09 80.01 48.23L80.08 48.19C80.01 48.07 79.98 47.92 79.98 47.76L79.9 47.76ZM80.01 48.23C80.08 48.36 80.18 48.47 80.3 48.54L80.34 48.48C80.23 48.41 80.14 48.31 80.08 48.19L80.01 48.23ZM80.3 48.54C80.43 48.62 80.58 48.65 80.74 48.65L80.74 48.57C80.59 48.57 80.46 48.54 80.34 48.48L80.3 48.54ZM88.9 48.92L88.9 48.96L88.94 48.96L88.94 48.92L88.9 48.92ZM88.52 48.92L88.48 48.94L88.49 48.96L88.52 48.96L88.52 48.92ZM87.37 47.19L87.4 47.17L87.33 47.06L87.33 47.19L87.37 47.19ZM87.37 48.92L87.37 48.96L87.41 48.96L87.41 48.92L87.37 48.92ZM86.99 48.92L86.95 48.92L86.95 48.96L86.99 48.96L86.99 48.92ZM86.99 46.6L86.99 46.56L86.95 46.56L86.95 46.6L86.99 46.6ZM87.37 46.6L87.4 46.58L87.39 46.56L87.37 46.56L87.37 46.6ZM88.52 48.33L88.48 48.35L88.56 48.46L88.56 48.33L88.52 48.33ZM88.52 46.6L88.52 46.56L88.48 46.56L88.48 46.6L88.52 46.6ZM88.9 46.6L88.94 46.6L88.94 46.56L88.9 46.56L88.9 46.6ZM88.9 48.88L88.52 48.88L88.52 48.96L88.9 48.96L88.9 48.88ZM88.55 48.9L87.4 47.17L87.34 47.21L88.48 48.94L88.55 48.9ZM87.33 47.19L87.33 48.92L87.41 48.92L87.41 47.19L87.33 47.19ZM87.37 48.88L86.99 48.88L86.99 48.96L87.37 48.96L87.37 48.88ZM87.03 48.92L87.03 46.6L86.95 46.6L86.95 48.92L87.03 48.92ZM86.99 46.64L87.37 46.64L87.37 46.56L86.99 46.56L86.99 46.64ZM87.34 46.63L88.48 48.35L88.55 48.3L87.4 46.58L87.34 46.63ZM88.56 48.33L88.56 46.6L88.48 46.6L88.48 48.33L88.56 48.33ZM88.52 46.64L88.9 46.64L88.9 46.56L88.52 46.56L88.52 46.64ZM88.86 46.6L88.86 48.92L88.94 48.92L88.94 46.6L88.86 46.6Z" fill="#2F2F2F" fill-opacity="1.000000" fill-rule="nonzero"/>
		<path id="Vector" d="M64.72 15.2C67.96 15.76 71.16 17.1 73.84 19.02C75.41 20.14 78.54 22.72 78.44 22.82C78.41 22.85 77.33 22.44 76.05 21.91C71.04 19.85 68.05 19.29 62.77 19.42C57.46 19.56 55.6 20.01 44.39 23.86C31.99 28.11 27.5 29.28 21.33 29.88C15.64 30.43 10.33 29.39 6.29 26.93C5.2 26.26 1.87 23.84 2.05 23.84C2.13 23.84 3.26 24.18 4.56 24.6C11.25 26.76 17.26 26.85 24.84 24.91C27.59 24.2 29.1 23.68 38.38 20.25C46.9 17.1 51.52 15.76 56.01 15.12C57.99 14.84 62.93 14.88 64.72 15.2Z" fill="#2F2F2F" fill-opacity="1.000000" fill-rule="evenodd"/>
	</g>
</svg>
