<svg width="118.000000" height="40.000000" viewBox="0 0 118 40" fill="none" xmlns="http://www.w3.org/2000/svg" xmlns:xlink="http://www.w3.org/1999/xlink">
	<desc>
			Created with Pixso.
	</desc>
	<defs>
		<clipPath id="clip9_1585">
			<rect id="Logo" rx="0.000000" width="117.000000" height="39.000000" transform="translate(0.500000 0.500000)" fill="white" fill-opacity="0"/>
		</clipPath>
	</defs>
	<rect id="Logo" rx="0.000000" width="117.000000" height="39.000000" transform="translate(0.500000 0.500000)" fill="#FFFFFF" fill-opacity="0"/>
	<g clip-path="url(#clip9_1585)">
		<path id="Vector" d="M46.63 27.83L56.22 27.83L56.22 32.62L41.68 32.62L41.68 7.24L46.63 7.24L46.63 27.83Z" fill="#2F2F2F" fill-opacity="1.000000" fill-rule="nonzero"/>
		<path id="Vector" d="M62.37 25.48C62.99 27.75 64.68 28.89 67.43 28.89C69.2 28.89 70.54 28.28 71.45 27.07L75.19 29.25C73.42 31.83 70.81 33.13 67.36 33.13C64.39 33.13 62.01 32.22 60.21 30.41C58.41 28.6 57.52 26.31 57.52 23.56C57.52 20.83 58.4 18.55 60.18 16.72C61.95 14.9 64.22 13.99 67 13.99C69.63 13.99 71.81 14.91 73.52 16.74C75.23 18.58 76.09 20.85 76.09 23.56C76.09 24.16 76.03 24.8 75.91 25.48L62.37 25.48ZM62.29 21.85L71.45 21.85C71.19 20.62 70.65 19.7 69.82 19.1C68.99 18.49 68.05 18.19 67 18.19C65.75 18.19 64.72 18.51 63.91 19.15C63.1 19.79 62.56 20.69 62.29 21.85Z" fill="#2F2F2F" fill-opacity="1.000000" fill-rule="nonzero"/>
		<path id="Vector" d="M89.05 18.99L85 18.99L85 26.53C85 27.16 85.15 27.62 85.46 27.91C85.77 28.2 86.23 28.36 86.83 28.4C87.43 28.43 88.17 28.43 89.05 28.38L89.05 32.62C85.87 32.98 83.62 32.68 82.32 31.71C81.01 30.75 80.36 29.02 80.36 26.53L80.36 18.99L77.24 18.99L77.24 14.49L80.36 14.49L80.36 10.83L85 9.42L85 14.49L89.05 14.49L89.05 18.99Z" fill="#2F2F2F" fill-opacity="1.000000" fill-rule="nonzero"/>
		<path id="Vector" d="M96.96 7.24L92.32 7.24L92.32 32.62L96.96 32.62L96.96 7.24Z" fill="#2F2F2F" fill-opacity="1.000000" fill-rule="nonzero"/>
		<path id="Vector" d="M112.91 14.49L117.86 14.49L111.32 32.61C110.39 35.23 109.15 37.12 107.61 38.29C106.06 39.47 104.14 39.99 101.84 39.87L101.84 35.52C103.09 35.54 104.07 35.28 104.81 34.72C105.54 34.17 106.12 33.27 106.55 32.04L99.18 14.49L104.25 14.49L108.92 26.69L112.91 14.49Z" fill="#2F2F2F" fill-opacity="1.000000" fill-rule="nonzero"/>
		<path id="Vector" d="M33.17 21.68L33.17 30.62C33.17 31.73 32.28 32.62 31.19 32.62L23.91 32.62C22.82 32.62 21.93 31.73 21.93 30.62L21.93 14.07C21.93 12.28 24.1 11.39 25.33 12.68L32.61 20.3C32.97 20.67 33.16 21.16 33.16 21.68L33.17 21.68Z" fill="#2F2F2F" fill-opacity="1.000000" fill-rule="nonzero"/>
		<path id="Vector" d="M20.1 0.29L20.1 5.04C20.1 7.18 19.68 9.28 18.9 11.23C18.12 13.18 16.97 14.98 15.5 16.53C12.55 19.61 10.9 23.73 10.9 28.02L10.9 32.62L0.13 32.62L0.13 25.42C0.13 21.14 1.78 17.02 4.73 13.94C6.2 12.39 7.36 10.59 8.14 8.64C8.92 6.69 9.33 4.59 9.33 2.45L9.33 0.29L20.1 0.29Z" fill="#2F2F2F" fill-opacity="1.000000" fill-rule="nonzero"/>
	</g>
</svg>
