<svg width="15.000000" height="12.000000" viewBox="0 0 15 12" fill="none" xmlns="http://www.w3.org/2000/svg" xmlns:xlink="http://www.w3.org/1999/xlink">
	<desc>
			Created with Pixso.
	</desc>
	<defs/>
	<path id="Vector" d="M13.5 0L1.5 0C0.67 0 0 0.67 0 1.5L0 10.5C0 11.32 0.67 12 1.5 12L13.5 12C14.32 12 15 11.32 15 10.5L15 1.5C15 0.67 14.32 0 13.5 0ZM13.2 3.18L8.29 6.25C7.8 6.56 7.19 6.56 6.7 6.25L1.8 3.18C1.72 3.14 1.65 3.08 1.6 3.02C1.55 2.95 1.51 2.87 1.49 2.78C1.47 2.7 1.46 2.61 1.48 2.53C1.49 2.44 1.52 2.36 1.57 2.29C1.61 2.22 1.67 2.15 1.74 2.1C1.81 2.05 1.89 2.02 1.98 2C2.06 1.98 2.15 1.98 2.23 2C2.32 2.02 2.4 2.05 2.47 2.1L7.5 5.25L12.52 2.1C12.59 2.05 12.67 2.02 12.76 2C12.84 1.98 12.93 1.98 13.01 2C13.1 2.02 13.18 2.05 13.25 2.1C13.32 2.15 13.38 2.22 13.42 2.29C13.47 2.36 13.5 2.44 13.51 2.53C13.53 2.61 13.52 2.7 13.5 2.78C13.48 2.87 13.44 2.95 13.39 3.02C13.34 3.08 13.27 3.14 13.2 3.18Z" fill="#FFFFFF" fill-opacity="1.000000" fill-rule="nonzero"/>
</svg>
