<svg width="15.777710" height="16.000000" viewBox="0 0 15.7777 16" fill="none" xmlns="http://www.w3.org/2000/svg" xmlns:xlink="http://www.w3.org/1999/xlink">
	<desc>
			Created with Pixso.
	</desc>
	<defs/>
	<path id="Vector" d="M10.3 10.81C9.9 11.22 9.35 11.45 8.78 11.45C8.21 11.45 7.67 11.22 7.26 10.81L4.21 7.72C3.8 7.31 3.58 6.76 3.58 6.18C3.58 5.59 3.8 5.05 4.21 4.63C4.62 4.22 5.16 4 5.73 4C6.31 4 6.85 4.22 7.25 4.63L8.78 6.18L13 1.91C11.62 0.72 9.84 0 7.88 0C3.53 0 0 3.58 0 8C0 12.41 3.53 16 7.88 16C12.24 16 15.77 12.41 15.77 8C15.77 7.17 15.65 6.37 15.42 5.62L10.3 10.81Z" fill="#0057F4" fill-opacity="1.000000" fill-rule="nonzero"/>
</svg>
