<svg width="16.624878" height="13.854004" viewBox="0 0 16.6249 13.854" fill="none" xmlns="http://www.w3.org/2000/svg" xmlns:xlink="http://www.w3.org/1999/xlink">
	<desc>
			Created with Pixso.
	</desc>
	<defs/>
	<path id="Vector" d="M15.2 0.12C15.2 0.12 16.74 -0.48 16.61 0.97C16.57 1.57 16.19 3.67 15.89 5.94L14.86 12.67C14.86 12.67 14.78 13.65 14.01 13.82C13.24 14 12.08 13.23 11.87 13.05C11.7 12.92 8.67 11 7.6 10.06C7.3 9.8 6.96 9.28 7.64 8.68L12.13 4.4C12.64 3.89 13.15 2.69 11.02 4.14L5.04 8.21C5.04 8.21 4.35 8.64 3.07 8.26L0.29 7.4C0.29 7.4 -0.73 6.76 1.02 6.11C5.29 4.1 10.55 2.04 15.2 0.12L15.2 0.12Z" fill="#FFFFFF" fill-opacity="1.000000" fill-rule="nonzero"/>
</svg>
