<svg width="48.226685" height="44.840210" viewBox="0 0 48.2267 44.8402" fill="none" xmlns="http://www.w3.org/2000/svg" xmlns:xlink="http://www.w3.org/1999/xlink">
	<desc>
			Created with Pixso.
	</desc>
	<defs/>
	<path id="Vector" d="M43.24 31.76C43.22 31.88 43.19 31.99 43.16 32.11C40.88 40.61 38.86 40.38 35.73 44.11C35.33 44.59 34.65 44.71 34.11 44.39C33.57 44.07 33.35 43.4 33.58 42.82C34.61 40.29 34.04 39.16 33.46 37.81C32.7 36.03 31.87 33.95 33.08 29.41C33.12 29.29 33.15 29.18 33.19 29.07C33.2 28.98 33.22 28.89 33.25 28.81L42.32 3.47C42.71 2.37 43.4 1.54 44.12 1.11C44.79 0.71 45.49 0.61 46.15 0.78C46.81 0.96 47.37 1.41 47.75 2.08C48.16 2.82 48.34 3.88 48.14 5.03L43.32 31.51C43.3 31.6 43.27 31.68 43.24 31.76ZM35.36 30.8C34.48 34.7 35.59 36.18 36.21 37.81C36.42 38.36 36.6 38.92 36.68 39.56C38.06 38.18 39.26 36.55 40.51 32.18L35.36 30.8ZM41.06 29.7L45.64 4.57C45.7 4.22 45.7 3.88 45.63 3.59C45.61 3.5 45.58 3.41 45.54 3.33C45.53 3.31 45.51 3.28 45.49 3.26C45.46 3.27 45.43 3.29 45.41 3.3C45.34 3.35 45.27 3.41 45.2 3.48C45 3.69 44.83 3.98 44.71 4.32L36.1 28.37L41.06 29.7ZM34.51 15.55C29.76 20.33 27.41 26.7 28.3 34.87C28.59 37.48 27.37 40.02 25.15 41.43C19.06 45.34 13.75 45.58 9.6 43.67C5.47 41.77 2.44 37.65 0.98 32.57C-1.86 22.71 1.22 9.25 13.09 2.48C22.61 -2.96 30.15 1.61 34.47 5.9L34.47 5.9C37.12 8.57 37.14 12.86 34.51 15.54L34.51 15.55ZM32.7 13.77C34.35 12.08 34.34 9.37 32.68 7.7C28.97 4.02 22.51 0.02 14.34 4.68C3.63 10.8 0.85 22.96 3.42 31.87C4.66 36.19 7.15 39.75 10.66 41.37C14.17 42.98 18.63 42.6 23.78 39.29C23.78 39.29 23.78 39.28 23.79 39.28C25.19 38.4 25.96 36.79 25.78 35.15L25.78 35.15C24.8 26.1 27.45 19.06 32.7 13.77ZM21.61 5.27C24.49 5.27 26.82 7.61 26.82 10.49C26.82 13.36 24.49 15.7 21.61 15.7C18.73 15.7 16.39 13.36 16.39 10.49C16.39 7.61 18.73 5.27 21.61 5.27ZM21.61 7.81C20.13 7.81 18.93 9.01 18.93 10.49C18.93 11.96 20.13 13.16 21.61 13.16C23.08 13.16 24.28 11.96 24.28 10.49C24.28 9.01 23.08 7.81 21.61 7.81ZM11.74 15.14C14.62 15.14 16.96 17.47 16.96 20.35C16.96 23.23 14.62 25.57 11.74 25.57C8.86 25.57 6.53 23.23 6.53 20.35C6.53 17.47 8.86 15.14 11.74 15.14ZM11.74 17.67C10.26 17.67 9.07 18.87 9.07 20.35C9.07 21.83 10.26 23.03 11.74 23.03C13.22 23.03 14.42 21.83 14.42 20.35C14.42 18.87 13.22 17.67 11.74 17.67ZM13.72 28.95C16.59 28.95 18.93 31.28 18.93 34.16C18.93 37.04 16.59 39.38 13.72 39.38C10.84 39.38 8.5 37.04 8.5 34.16C8.5 31.28 10.84 28.95 13.72 28.95ZM13.72 31.48C12.24 31.48 11.04 32.68 11.04 34.16C11.04 35.64 12.24 36.84 13.72 36.84C15.19 36.84 16.39 35.64 16.39 34.16C16.39 32.68 15.19 31.48 13.72 31.48Z" fill="#0029FF" fill-opacity="1.000000" fill-rule="evenodd"/>
</svg>
