<svg width="20.000000" height="20.000000" viewBox="0 0 20 20" fill="none" xmlns="http://www.w3.org/2000/svg" xmlns:xlink="http://www.w3.org/1999/xlink">
	<desc>
			Created with Pixso.
	</desc>
	<defs>
		<clipPath id="clip9_852">
			<rect id="ri:whatsapp-fill" rx="0.000000" width="19.000000" height="19.000000" transform="translate(0.500000 0.500000)" fill="white" fill-opacity="0"/>
		</clipPath>
	</defs>
	<rect id="ri:whatsapp-fill" rx="0.000000" width="19.000000" height="19.000000" transform="translate(0.500000 0.500000)" fill="#FFFFFF" fill-opacity="0"/>
	<g clip-path="url(#clip9_852)">
		<path id="Vector" d="M10 1.66C14.6 1.66 18.33 5.39 18.33 10C18.33 14.6 14.6 18.33 10 18.33C8.52 18.33 7.08 17.94 5.8 17.2L1.67 18.33L2.79 14.19C2.05 12.92 1.66 11.47 1.66 10C1.66 5.39 5.39 1.66 10 1.66ZM7.16 6.08L6.99 6.08C6.88 6.09 6.78 6.12 6.68 6.17C6.59 6.22 6.51 6.28 6.43 6.36C6.33 6.45 6.28 6.53 6.22 6.61C5.91 7.01 5.74 7.51 5.75 8.01C5.75 8.42 5.85 8.82 6.02 9.19C6.36 9.94 6.92 10.74 7.66 11.47C7.84 11.65 8.02 11.83 8.2 12C9.12 12.81 10.22 13.39 11.4 13.7L11.88 13.77C12.03 13.78 12.18 13.77 12.34 13.76C12.58 13.75 12.82 13.68 13.03 13.57C13.14 13.51 13.25 13.45 13.35 13.39C13.35 13.39 13.39 13.36 13.46 13.31C13.57 13.23 13.64 13.17 13.73 13.07C13.8 13 13.86 12.92 13.91 12.82C13.97 12.68 14.04 12.42 14.06 12.21C14.08 12.04 14.08 11.95 14.08 11.9C14.07 11.81 14 11.72 13.92 11.68L13.43 11.46C13.43 11.46 12.71 11.14 12.26 10.94C12.22 10.92 12.17 10.91 12.12 10.91C12.06 10.9 12 10.91 11.95 10.93C11.89 10.95 11.84 10.98 11.8 11.01C11.8 11.01 11.74 11.06 11.14 11.79C11.11 11.84 11.06 11.87 11 11.89C10.95 11.91 10.89 11.91 10.83 11.9C10.78 11.88 10.73 11.87 10.67 11.84C10.57 11.8 10.54 11.78 10.46 11.75C9.99 11.54 9.54 11.26 9.15 10.92C9.05 10.83 8.95 10.73 8.85 10.63C8.52 10.31 8.24 9.96 8 9.57L7.95 9.49C7.92 9.44 7.89 9.38 7.87 9.32C7.83 9.2 7.92 9.1 7.92 9.1C7.92 9.1 8.12 8.88 8.21 8.76C8.3 8.64 8.38 8.53 8.43 8.45C8.53 8.29 8.56 8.13 8.51 8C8.28 7.43 8.03 6.87 7.79 6.3C7.74 6.19 7.59 6.11 7.46 6.09C7.41 6.09 7.37 6.08 7.32 6.08C7.21 6.07 7.1 6.08 6.99 6.08L7.16 6.08Z" fill="#FFFFFF" fill-opacity="1.000000" fill-rule="nonzero"/>
	</g>
</svg>
